/* XPM */
static char *result[] = {
/* columns rows colors chars-per-pixel */
"64 64 219 2 ",
"   c #3E3E3E",
".  c #493A2E",
"X  c #443C35",
"o  c #4B3C34",
"O  c #443E3A",
"+  c #4B3E3E",
"@  c #553F30",
"#  c #3F433D",
"$  c #44413D",
"%  c #4B4439",
"&  c #4B433C",
"*  c #52443D",
"=  c #584538",
"-  c #5C4B3D",
";  c #674E3B",
":  c #6D543E",
">  c #72523B",
",  c #3D3D41",
"<  c #413F42",
"1  c #483E40",
"2  c #3E4242",
"3  c #3B4748",
"4  c #444444",
"5  c #4B4543",
"6  c #464946",
"7  c #4C4944",
"8  c #454549",
"9  c #4A4649",
"0  c #45494A",
"q  c #4B4B4B",
"w  c #524642",
"e  c #584647",
"r  c #534B44",
"t  c #5C4B43",
"y  c #524C4C",
"u  c #5B4E4A",
"i  c #4D514E",
"p  c #5F5346",
"a  c #53514E",
"s  c #5B524C",
"d  c #454E51",
"f  c #4D4E51",
"g  c #524E52",
"h  c #5A4E50",
"j  c #4E5153",
"k  c #4C5659",
"l  c #545454",
"z  c #5B5554",
"x  c #565956",
"c  c #5B5956",
"v  c #545659",
"b  c #5B5659",
"n  c #56595B",
"m  c #5B5B5B",
"M  c #614C44",
"N  c #614B4B",
"B  c #635244",
"V  c #6C5444",
"C  c #64554B",
"Z  c #6A554A",
"A  c #6D5A4C",
"S  c #755845",
"D  c #745B4C",
"F  c #795D4C",
"G  c #645A56",
"H  c #6B5A52",
"J  c #685B56",
"K  c #615D5D",
"L  c #745E51",
"P  c #7A5F51",
"I  c #5E605F",
"U  c #77604E",
"Y  c #7A614E",
"T  c #6F6056",
"R  c #62625E",
"E  c #766254",
"W  c #7B6253",
"Q  c #796559",
"!  c #555D60",
"~  c #5C5E61",
"^  c #615E62",
"/  c #5E6263",
"(  c #5E6668",
")  c #5F6970",
"_  c #646464",
"`  c #696664",
"'  c #666965",
"]  c #6A6966",
"[  c #63656A",
"{  c #696669",
"}  c #65696C",
"|  c #696969",
" . c #786D65",
".. c #636B71",
"X. c #666872",
"o. c #8C5D3C",
"O. c #94613E",
"+. c #8D5E43",
"@. c #88654C",
"#. c #966441",
"$. c #996643",
"%. c #9C6946",
"&. c #93654A",
"*. c #9E6C49",
"=. c #826655",
"-. c #886953",
";. c #8B6B54",
":. c #846B5C",
">. c #8A6D5B",
",. c #946C57",
"<. c #8D715B",
"1. c #93735B",
"2. c #99755C",
"3. c #A06D49",
"4. c #A2714F",
"5. c #A16E50",
"6. c #A67556",
"7. c #AF7C59",
"8. c #856C64",
"9. c #8C6C62",
"0. c #936E62",
"q. c #8C7468",
"w. c #967764",
"e. c #9B7A64",
"r. c #A37D64",
"t. c #A57F67",
"y. c #B5825E",
"u. c #B8845F",
"i. c #9E836E",
"p. c #978473",
"a. c #AA8165",
"s. c #A4826B",
"d. c #A9876B",
"f. c #AA846C",
"g. c #B28564",
"h. c #B98764",
"j. c #B48B6C",
"k. c #BC8C6B",
"l. c #BB906F",
"z. c #A48572",
"x. c #AC8972",
"c. c #AE8979",
"v. c #B48E72",
"b. c #B78875",
"n. c #BB8D73",
"m. c #AE917B",
"M. c #BB9274",
"N. c #B3927B",
"B. c #B79378",
"V. c #BD947A",
"C. c #C08B66",
"Z. c #C18E6B",
"A. c #C3916E",
"S. c #C08E76",
"D. c #C49473",
"F. c #CE9B76",
"G. c #C89778",
"H. c #C49A7C",
"J. c #CC9C7B",
"K. c #D09975",
"L. c #D19E79",
"P. c #CDA37F",
"I. c #D4A27D",
"U. c #DCA57E",
"Y. c #E0A77F",
"T. c #E1AA7F",
"R. c #AD9684",
"E. c #B79786",
"W. c #BC9B82",
"Q. c #C59D82",
"!. c #CC9E81",
"~. c #C5A287",
"^. c #CCA283",
"/. c #D4A483",
"(. c #DAA683",
"). c #D6AA85",
"_. c #DDAA85",
"`. c #D4A789",
"'. c #D4AB8B",
"]. c #DCAC8A",
"[. c #DEB18E",
"{. c #CBAA92",
"}. c #D5AE92",
"|. c #DBB293",
" X c #D7B398",
".X c #E0A781",
"XX c #E2AB84",
"oX c #E1AE8A",
"OX c #E5B386",
"+X c #E4B18D",
"@X c #EBB58D",
"#X c #EBBA8D",
"$X c #E4B493",
"%X c #EAB692",
"&X c #E6B995",
"*X c #ECB995",
"=X c #E6B99C",
"-X c #EDBC9A",
";X c #F4BC95",
":X c #F8BE97",
">X c #F1BE9B",
",X c #D7B8A1",
"<X c #EEBFA2",
"1X c #EEC09D",
"2X c #F3C19D",
"3X c #FBC49C",
"4X c #F6C89F",
"5X c #FCC99F",
"6X c #ECC1A1",
"7X c #F4C4A2",
"8X c #FBC6A3",
"9X c #F6C9A6",
"0X c #FDCAA6",
"qX c #F6C9AA",
"wX c #FECCAA",
"eX c #FED0A7",
"rX c #FFD1AD",
"tX c #FCCDB0",
"yX c #FFD1B1",
/* pixels */
"q g l b l l l l m I _ m l l l 0 9 4   6 l l a l l l _ ` _ K m G K m l q 0 0 j f 0 4 f v l j q c z u A q.e.2.6.4.5.6.2.,.;.D u v ",
"6 6 q m x q q m _ ` ` l q 4 6 q 9 6 4 q l m l 0 l m _ [ _ m K ` | | / v q 8 2 2 9 q n m l l b K c u Q R.{.^.`././.`.^.H.t.=.h g ",
"q q l l l l l l v m l 6 2 9 l y 0 4 4 q f b l l l m m ` _ ` K ] ] K v v j 0 4 , , q l l l l l v q & T E.,X|.+XoX$X$X'.~.N.,.h y ",
"l _ m q q _ _ q q q 4   < j ` l 5 4 4 4 6 q m m l j l m ` | ` ] R q q l / n 0 , 2 6 5 r z m g q 5 r  .E.}.'./.I./.(./.H.v.;.e 5 ",
"q m q 4 q l l q 4 < 4 6 q l x m f q 6 4 < 6 l b q 6 9 f m m c R z 4 6 l ~ v 9 4 4 $ O & u b q 5 + * :.E. X|.T.XXOX+X).P.j.-.- w ",
"4 6 4 4 6 q 4 4 $ < 6 l m m q m m l q 6 4 6 q 6 4 6 6 6 q q 4 q q 4 4 6 q 8 2 2 4 O X . o & + & o o P E.|.(.OX;X4X#XU.H.j.;.t s ",
"9 6 6 4 6 q 9 4 4 9 l l m l y l m l q 4 4 6 ,   < 6 9 q 6 4 , 6 6 y 6 4 , 2 8 4 $ 5 C D D L A E D S 0.Q.|.XX@X3X5X#XI.G.v.-.t a ",
"l m g 4 9 l l q q l n l q l m l y q 4 4 4 < 4 6 O 2 q b g 6 q l m R m q 9 4 0 4 O z p.R.R.R.m.m.N.N.!.].oX;X3X5X5X#X`.!.N.:.t 6 ",
"l m l j l m K q 6 l m l q l m m y 4 4 4 4 , 6 9 4 6 l m n q l m |  .` l q q 6 O O J R.,X X}. X}.'.'.].oX@X3X5X5X:X@X`.n.t.L h f ",
"l l a l [ _ m q 4 q j l m l l l x l q 6 6 6   4 f m l y a n m [ | | ` m l q 9 4 O H m.}.}.).].].].)._.#X3X5X8X:XoX].S.w.Q b b v ",
"l q l R | { m j 9 4 6 l m x q l m m q 4 4 9 4 0 m m l q l ~ ' [ ` ` ` _ ^ m 6 $ % A m. X[.U._._._._.#X3X0X3X2X+X/.S.t.=.t g ~ ~ ",
"l m I _ { ' _ m l 6 4 9 l l l m _ ~ l 2 < 5 q l l l i a m [ } [ _ R ] ] { m 4 4 % A m.}._.T._._.OX1X4X0X0X3X+X/.Q.w.L Z h b ^ ~ ",
"l m ` ` _ _ ` ' m j 4 4 q m _ _ ' m q # 4 q n m q q l m ` [ [ [ _ ` ` ` ^ b 6 4 $ A v.[.T._._.oX&X7XwX0X7X$X^.B.s.E - u K _ { m ",
"l l m / _ _ ` } ` l 9 9 l m ` ` ' I 7 4 q l m x l l m ` { { ( [ ` ` _ G l q 6 4 % A v.[.U.OX+X*X7XwXqX<X|.'.v.1.W B u l ` { { b ",
"l 7 j _ { _ [ { / l 0 j m _ [ / ' I 0 q m I l 7 z _ ` [ _ { ( [ | | ` h & O & O . V v.[.U.XX&X8XtXtX<X|.'.V.i.D = s _ _ _ _ { ~ ",
"i l l l I } ` _ ~ d 0 v [ } / / ( ! 6 # q x l a z x c R | _ X.X.[ ~ G J Q E W F Y 1.M._.#X#X2XwX0X8X-X`.B.e.W C s m { } [ ^ b g ",
"c c a i x R R ' _ d 8 v [ X.} } } / i 4 0 l l z l y l _ ] _ X.X.[ g u 8.E.E.W.E.W.~.'.+X#X5XwX8X>X+X(.M.r.F B z b ^ } } [ m g q ",
"c a r i i x I [ ~ d 8 f ~ ~ v ~ / x q , 4 9 g m g 9 d m _ ~ ( X.[ y & 8.{.=X|.=X X|.|.&X3XeX0X>XoX/.M.e.=.= & z { { { [ ^ l 9 5 ",
"* 6 i R x q l / ~ f 9 q g y 5 5 5 5 + O + 1 9 h 9 1 9 g v ! { } ^ u = -.Q.|.].'.'.|.&X2X8X3X:X$X`.V.e.W t & w K | { _ K l 6 2 i ",
"% % r c z 6 0 x m q 4 $ 1 e u t t t N M e N N e h h e 1 q m { ~ b C S s./.oXoXXX|.*X0XwX8X;XoX/.V.s.Q t & 1 9 b _ K K g 9   4 v ",
"a & 7 a 7 # 4 6 q & X . o C :.0.0.0.0.0.9.0.9.9.0.8.J 1 o & r % t :.s.H.(..X.XXX*XwXtXwX>X%X/.n.e.E t & 4 < < g g g g q 5   4 b ",
"r 7 $ 6 6 4 $ $ $ * - = ; ;.s.M.C.b.S.S.b.b.b.E.E.c.0.Z = ; - . M s.~.'.(..XXX@X3X0X8X>X=X/.n.e.U t O < q 9 8 g q < 1 9 q 6 6 l ",
"6 # 4 q l 6 O X * U :.;.,.a.H.I.K.K.K.!.K.!.!.!.!.Q.j.1.@.@.<.Y ;.B.}.[.oXoX>X:XwX8X<X+X].n.e.W B w   , d v g m b < < d l g 9 q ",
"0 3 i m x 7 X . - q.x.j.g.A.U._..X.X.X.X.X.X.X.X[._.G.n.g.j.d.d.j.H.'.[.+X-X8XwX:X>X%X`.M.e.F = * 7 O 8 f ~ ^ | _ g 0 n _ v 6 q ",
"k k ! x i % * A <.d.H.P.F.I.T.OX@X@X#X#X%X;X;X*X+X_./.!.J.H.H.P.P.P.`.[.-X7XqXqX>X$X`.n.e.P M + + 9 q g b ^ ^ [ ^ ^ ~ v g v y f ",
"k ! ! i # % B 1.m.H.'.).XX.XT.#X:X8X8X5X8X0X0X8X>XoX].].].`./.].+X_.].*X9XtX9X7X+X^.V.r.W = 7 1 1 1 g K [ ` | { [ [ ^ v 0 v v z ",
"! k i 2 % A <.x.^.P.).[.#X@XOX2X9XeXrXwX0X0XwXwX7X*X[.].`.]./.oX+XoX&X9XyXqX6X&XP.j.i.Q M X q b 9 4 g ^ | | { [ ` K b l y n l l ",
"k i 2 % p q.m.~.'.)._.1X3X8X0X7XeXrXrX0X8X8XwXwXwX7X$X'.`.].]._.[.#X7XwXqX6X|.'.M.2.Y - O 5 b ~ g 4 q ^ | { [ ^ ^ g y y m m q q ",
"d 6 O % A i.W.'.[.[.-X4XwXrXyXqXeXeXwX0X0X0X8X8XwX8X1X&X+X&X*X$X%X>X0X0X6X&X}.^.M.e.: % 8 j n m g 5 9 v ~ [ ~ ~ b y u u m l 4 4 ",
"i 6 X . : e.B.).+X1X7X0X0XqXqXwXwX0X0X0XwXwXwXwX0X0X0X0X4X4XqX7X7XwX0X2X&X|.].^.W.i.p 6 ! ~ v 0 8 9 y q f _ [ ! q l G z 7 q 4 5 ",
"0 $ = : @.g.D.I.+X1XwXeXwXwXwXwXwXwX0X0X0X0X0X0X0XwXwXwXeXeXwXwXwXtX0X1X_.I.^.V.i. .s 6 m n q 9 4 < < 4 f l l f q x G b 6 ,   q ",
"4 $ V ,.a.A.I.).[.1X0XeX0X0XwXrXwXwX0X0X0XqXwXwXwXwXwXrXeXrXwXwXwXwX0X1X_.F.H.s.E s 6 , q q       4   4 q l q 6 4 q q 6 6 4 O j ",
"  5 W x.J.(._.].|.7X0XwX0X0XwXwXwXrXwXwXwX0XwXwXwXwXwXwXwXwXwX0XtXwXwX;X_.F.k.<.= $ $ 6 6 6 4 $ 4 6 6 4 4 6 4 ,   6 q , 4 6 9 l ",
"< + L f.H.(.$X&X1X8XwX0X0XwXwX0XwXwXyXwXrXyXrXwXeXwXwXwXwX8XeXwXwXtXqX>X_.I.M.1.- $ x c x m l x n m g 6 < 4 4 O 4 l m q 6 q q m ",
"9 5 D t.D./.$X2XwXyXwX0X8X8XwX0X0X0X0X0XwXwX0XwXwXwX8XwXwX8XwXwXwXtXwX;XU.P.l.2.- * x ' R ' [ ' _ m l q 6 4 4 0 q m m l q l l m ",
"f 5 L f.D.(.$X7XyXyX0X2X;X*X>X2X7X>X>X-X-X-X7XwXwXwXwXwXwX0XeX0XqXtXqX>X_.F.j.1.B % x R ' R ' _ m m m l q q 6 q l l l l l l l m ",
"g 5 D f.G./.$X2XwXwX7X&XXX_.(._.(.(./.(.oXoX-X0X8X0XwX0XwXwXwXwXwXqX0X-XXXF.h.<.- * x I ' _ ' _ b q l m x q 9 l m l 6 l b l q l ",
"f + D t.D.L.$X7XqX7X>X%XU.K.A.k.k.k.Z.D./.].&X8X0XwXwXwXwXwXwX0XrXrXeX2X_.I.l.1.; i R ' } ` | { m l l l l q 9 f m l q l x l q m ",
"8 + D f.D./.%XqX9X%XoXoXU.C.7.3.%.%.*.7.Z.(.].oX2XwXwXwX0XwXwXwXwXyXeX1XT.I.l.<.- * m _ _ _ ' } / m m l 6 < 4 O 6 b _ l q q _ ` ",
"9 5 L s.D.L.&X7XqX&X(.L.C.7.3.O.O.O.$.4.y.D./.OX-X0XwXwXwX0XwXwXwXwX4X1XT.F.j.<.- * m ' ' R [ { K m l l q 6 6 q l l l x l l _ } ",
"f 7 L f.D.L.$X7X7X=XL.h.6.3.O.O.#.O.O.%.*.7.A.].*XqXwXwXwXwX0X0XwXqX9X*X_.L.k.<.- * m R ' _ ' ` m j y x m q q l z f q l m m | | ",
"g 9 L f.D./.$X-X7X%XI.u.3.O.O.$.%.#.#.$.#.*.h._.*X8XwXwX0XwX0XwXyXyXqX-X_.L.l.1.- r m ' ' ' ` m l q l l m q q l m l q f m I | | ",
"q 9 P t.D.`.oX$X=X$XL.h.3.O.O.O.*.$.%.%.O.%.k.(.&X8XwXwX0XwX0XwXyXyX0X-XXXI.j.1.- * m R | [ b g l m m l q 4 4 6 j m m l l l _ | ",
"< w P f.G.(._.].|.+XL.u.%.O.$.O.%.#.#.*.O.4.l._.*X0XrXwX0X0X0X0XwXqX1X@X.XL.j.<.- % x R _ m q 4 l m m q   < 4 < 6 l z l 6 0 m _ ",
", & E d.H.(.].(._.oXL.7.%.#.%.#.3.O.O.3.o.%.Z._.-X0XrXwXwX0X0X0X9X7X*XoXoX/.M.1.- % 9 y l l 6   q q q 6 4 4 9 4 4 9 q 5 4 4 l l ",
", q T q.M.^.(.(..XOXL.h.5.&.+.#.3.O.O.O.%.6.k._.;XwXrXwX0XwX8XwX8X+X(.(.`.!.z.8.s 7 9 y 9 4 4 , 4 4 6 4 6 q 9 6 4 6 6 4 4 4 5 6 ",
"f n G U <.v.P.U.T.XXU.G.k.6.&.O.O.%.O.%.7.Z.F._.*X0XwXwXwXwX8XwX0X;X.X/.n.t.8.H R G b z 9 4 1 4 q j y 9 6 l l 6 4 0 l 9 4 4 4 4 ",
"! m a = : a.D.I.XXY..XoX/.b.6.O.3.3.3.6.Z.(.XXoX*X5X8X8X0XwX8X0X8X%XoXJ.f.=.t e K ] _ b y 4 6 q l m m q 9 l m g 6 l ~ l 6 4 < q ",
"d j 6 o V r.H./.(.Y..XXXoXL.g.h.h.u.u.C.L.XX%X*X:X8X0X0X0XwX8X:X%XoX'.!.x.:.t e ^ ^ ^ g q 9 q l b m x l l l m l l K ` m l 0 4 q ",
"3 8 6 & Z e.V.!.(..X.X.X.X(.L.L.I.I.I.I.(.oX*X0X0XwXwX0X0XwX3X@XXX(.`.Q.z.8.t 9 b ~ g 9 9 5 l m l q q m _ q j x [ ` _ _ I l 6 l ",
"3 0 4 & B :.s.l./.oXXX(..XXXoXoX].+X%X&X&X&X7XwXyXrX0X7X2X>X%XXX(.^.Q.x.9.H w q b h 9 8 4 9 i l q   4 l m l l m { } I _ m l q q ",
"3 3 2 $ % - Y i.n.^.(..XT.XXXX(.`.$X<X7X7X7X7XqXyXwX-X|.].].oX_./.Q.x.>.B w 1 8 g f 8 9 4 6 9 q 9 4 4 6 i m m R ` ` I m q 9 4 6 ",
"3 2 # $ O X - U s.B.^./.U.U.U.(.].].-X6X7X8X9X7X9X7X=X]././.).`.H.f.>.D e 5 6 8 9 , < d 4 4 6 q 6 4 4   6 ^ ` [ _ _ _ v 5 4 4 4 ",
"6 2 , # $ & % - U i.V.D.Z.K..XoX_.oXoX$X$X$X$X%X&X$X].oX(.G.n.~.N.=.- N G G m v 9 < 8 9 2 4 l m l 4   4 q m ` { _ [ ` _ [ l 6 6 ",
"0 q q i q $ $ % t Q e.r.a.n./.(.(.(./././.(.(.I.L.L./.L.A.y.e.s.w.L t G ^ ^ ~ ! g f , < 9 f m m l q 4 4 q m ` } _ [ ` _ K m g 6 ",
"a x R m i 6 # $ % p Z V S 2.n.G.D.D.D.D.D.A.A.D.D.D.F.G.7.+.> V C C z K ^ ~ g g ~ v d 8 l m l i l m q q q m ` } _ _ _ m l l m l ",
"c R ' ' x 6 6 6 $ 7 % . = W e.f.t.t.g.t.t.t.r.t.a.a.f.a.,.> @ o r c ' [ [ n 6 q c c q q v m q q l m l q q m / ` { ' _ v q j m m ",
"R R ' ' x 6 q l a 6 $ 7 s J T E F F F F D @.F F W F S D S V s l z / } ..( [ m y y a 7 6 q l l l l l 0 4 q q l _ ` | ` m l l l q ",
"R R ' ' x 6 q ! I j j x m m q & w * & * + * * * w * o w B G _ { [ ) ) ..} } ] z 7 5 4 4 4 q n m l q 4 4 6 6 l l I ' | _ _ l q q ",
"' R ' ' n 6 q l n x k k k k v l l l l g g g y < 4 1 9 g l g m ( ....) } [ I z z s 7 5 q 0 y x b l q q 9 4 y q l l _ ` / m l l l ",
"' R ' ' m q 4 4 q v m f 6 j _ / ~ ^ _ _ ^ ~ l 8 , 6 l ^ m q q ~ [ [ [ } [ x 6 a c m q 6 l m l q l _ m q 0 m m l q m _ m q l m m ",
"R ' | ' m q     6 l m m l l m m / ` } ` m l q 4 q q l l q q 9 l _ | | | m x l m _ / y 6 l m l l l l q q 5 j l l q l l q l l l l ",
"x I ' I l q     < 4 q l m l 6 m _ ` | m b q 6 6 l m v q 6 9 < 6 i m m x q q m m _ m q 6 6 9 l m l q 6 6 9 9 q n m l q q K l q q ",
"x _ | ` ^ m l 9 6 6 q l l l l l l m n l q q q l m ` m l 9 6 q 6 6 l l j q y _ | { / z g q 6 l l l q q 9 6 6 q l z q 6 l _ l 6 q "
};
