/* XPM */
static char *result[] = {
/* columns rows colors chars-per-pixel */
"64 64 219 2 ",
"   c #323232",
".  c #3E3E3E",
"X  c #3E423E",
"o  c #41413F",
"O  c #3D3F41",
"+  c #403F47",
"@  c #3E4241",
"#  c #444444",
"$  c #494A45",
"%  c #454549",
"&  c #464949",
"*  c #4B4B4B",
"=  c #4F514D",
"-  c #51524E",
";  c #474854",
":  c #4C4C53",
">  c #4C495C",
",  c #504E57",
"<  c #4E5157",
"1  c #535454",
"2  c #595956",
"3  c #53545B",
"4  c #575959",
"5  c #5C5C5C",
"6  c #615F5F",
"7  c #7B595E",
"8  c #5E605B",
"9  c #61615E",
"0  c #555663",
"q  c #5C5C63",
"w  c #595B67",
"e  c #5C5D76",
"r  c #675C64",
"t  c #725F6B",
"y  c #615F70",
"u  c #5D6164",
"i  c #5F616D",
"p  c #5F617B",
"a  c #646464",
"s  c #686767",
"d  c #696A65",
"f  c #64646A",
"g  c #6B6B6B",
"h  c #71716D",
"j  c #636473",
"k  c #6B6C73",
"l  c #65637A",
"z  c #686878",
"x  c #6B6B7B",
"c  c #726B74",
"v  c #6F7073",
"b  c #737373",
"n  c #797A75",
"m  c #777678",
"M  c #73737C",
"N  c #7B7B7B",
"B  c #835F65",
"V  c #866567",
"C  c #9A6667",
"Z  c #8C6B75",
"A  c #9D6B71",
"S  c #AD6F73",
"D  c #BA7275",
"F  c #CD7579",
"G  c #CC7978",
"H  c #7F8177",
"J  c #83847E",
"K  c #878D7E",
"L  c #D6807D",
"P  c #E1847F",
"I  c #686787",
"U  c #6B6B84",
"Y  c #736E84",
"T  c #796F89",
"R  c #737384",
"E  c #7B7783",
"W  c #7E7D84",
"Q  c #72738C",
"!  c #7C7D8D",
"~  c #6D7098",
"^  c #757494",
"/  c #7B7B94",
"(  c #78759A",
")  c #7C7B9B",
"_  c #7D7CA3",
"`  c #7E7EAD",
"'  c #847A87",
"]  c #837E9D",
"[  c #BC7882",
"{  c #B67F90",
"}  c #817EA3",
"|  c #C47985",
" . c #7F8192",
".. c #7F82A6",
"X. c #838383",
"o. c #878887",
"O. c #8B8B8B",
"+. c #908F8F",
"@. c #91928D",
"#. c #8B8C94",
"$. c #83829B",
"%. c #888799",
"&. c #928E92",
"*. c #8F9292",
"=. c #939394",
"-. c #979798",
";. c #9C9C9C",
":. c #AC8894",
">. c #9FA09A",
",. c #A3A39E",
"<. c #8483A4",
"1. c #8989A5",
"2. c #8584AB",
"3. c #8986AD",
"4. c #8B8AAE",
"5. c #938FAD",
"6. c #8991A5",
"7. c #9796A6",
"8. c #8483B3",
"9. c #8986B7",
"0. c #8D8AB4",
"q. c #8D8BBC",
"w. c #918EB8",
"e. c #9494B2",
"r. c #9A9CB5",
"t. c #9492BD",
"y. c #9B96BD",
"u. c #A49DA9",
"i. c #A79CBF",
"p. c #B79EB8",
"a. c #9FA2A3",
"s. c #A3A3A3",
"d. c #A8A9A6",
"f. c #ACACAC",
"g. c #B2B0AF",
"h. c #B5B7AE",
"j. c #A9A6B0",
"k. c #ADADB3",
"l. c #B3B3B4",
"z. c #B7B8B2",
"x. c #B9BBB5",
"c. c #BCBCBC",
"v. c #CE868B",
"b. c #C8879A",
"n. c #E98785",
"m. c #F38B89",
"M. c #ED9495",
"N. c #FCA09D",
"B. c #CB9AB3",
"V. c #C7A3BA",
"C. c #C9AEB9",
"Z. c #FAACA9",
"A. c #FDB2B0",
"S. c #BFC2B9",
"D. c #C0C1BD",
"F. c #938FC2",
"G. c #9692C2",
"H. c #9B95C3",
"J. c #9B97C7",
"K. c #9D9BCB",
"L. c #9E9CD1",
"P. c #A49CC8",
"I. c #A29ED3",
"U. c #9FA8C9",
"Y. c #9AA5D5",
"T. c #A2A3C6",
"R. c #A4A2CD",
"E. c #B7B8C7",
"W. c #A6A4D3",
"Q. c #A9A6D5",
"!. c #ACAAD4",
"~. c #A9A4DA",
"^. c #ADA9DB",
"/. c #B2ADD9",
"(. c #ABB2D6",
"). c #B6B5D8",
"_. c #B1ADE0",
"`. c #B8B6E5",
"'. c #BCBBEB",
"]. c #BDBAF1",
"[. c #D0B1CA",
"{. c #C4B7DC",
"}. c #E2B7D6",
"|. c #C1BDE7",
" X c #C3BDF1",
".X c #BFC3C7",
"XX c #BFC1E7",
"oX c #BAC6FB",
"OX c #C4C3C3",
"+X c #C8C9C7",
"@X c #C6C5C8",
"#X c #CBCBCB",
"$X c #CFCECE",
"%X c #D1D2CD",
"&X c #CCCCD1",
"*X c #D3CFD3",
"=X c #D4D4D4",
"-X c #DADCD5",
";X c #D7D6D9",
":X c #DBDBDB",
">X c #FFCECA",
",X c #DEE1DC",
"<X c #E1E2DD",
"1X c #CFCAEC",
"2X c #C6C5F4",
"3X c #C9C8F6",
"4X c #CDCCFB",
"5X c #D6CCF7",
"6X c #D6D6FB",
"7X c #E4D3EE",
"8X c #E4E4E4",
"9X c #E8E9E7",
"0X c #ECECEC",
"qX c #EEF1ED",
"wX c #F1F2EE",
"eX c #E8E8F8",
"rX c #F4F4F4",
"tX c #F7F7F8",
"yX c #FCFCFC",
/* pixels */
"* = 1 4 1 1 4 1 2 r a 5 1 1 1 % - - m ;.f.@X-X8X0X0XrXyXyXyXyXtXyXyXyXtX8X8X8X0X=Xx.s.W r * 1 4 - : 1 1 1 a 5 5 5 - - 5 f a 2 - ",
"& & = 5 4 * * 1 a s f 2 % $ # $ & 5 u.OX#X:X9XwXrXrXrXrXtXyXyXyXyXyXtXyXtXyXrX9X;X@XOXd.m = 4 5 1 $ 1 6 s s a a 5 4 - 4 5 1 : - ",
"* * 1 1 1 1 1 1 4 5 4 $ . & - : . 5 l.:X8X<X#XE.c.S.C.S.=XrXyXyXyX;Xc.c.c.@XOX+X:X8X:Xx.N = - 4 1 1 4 9 g s a f a 4 1 1 , - - - ",
"1 6 6 % = 6 r = & $ # . # 1 r 4 # 5 k.:X0X8Xd.N v b M m d.8XyXyXrXd.m h g b b ;.:XwX:Xc. .2 * $ = 5 a a 6 s s s s a 5 1 $ 1 q - ",
"* 5 1 # $ 4 2 $ # + # % * 1 1 9 g O.x.#X=X@X*.d u u 5 5 O.:XyXyX0X;.5 2 5 a 5 N x.&X#XOXs.H a = 1 5 5 6 5 5 5 5 5 6 2 = + = 2 1 ",
"# # # o # # + . . . $ 3 6 4 $ s s.OX#Xc.;.N g s 9 g d a -.8XyXyX0X;.a 5 a g g s m =.l.&XOXl.O.d 1 * # $ - $ # # # $ * + # . $ , ",
"% $ # + $ * # + # $ - 2 5 1 * m c.:X:XOXX.5 5 9 a s a u -.8XyXyX0Xs.s a a g g u q N l.-X=X@X@.9 = % . . % $ % # + # $ $ + . # * ",
"4 2 1 # % 2 2 * * 1 5 1 * 1 2 X.D.=X0X:X=.g g s d d u 5 O.8XtXyX0X;.a 5 a a a s a X.#X0X<Xc. .= # % # # % 6 5 = $ = 5 1 # # $ % ",
"r 2 4 * 1 u 5 $ $ 1 5 , * 1 5 o.c.;XyX0X*.a s a f s v N s.0XyXyXrXx.N g d u g g a o.;XyX8XS.H & # . + $ * 5 5 * * 2 s 4 * $ * * ",
"v 1 $ 3 9 s 5 * # % - 1 2 1 * m l.:XyX0X*.u 5 9 4 a o.l.:XtXyXyXyX8XE.=.d 8 u u 8 X.;XyX,X[. .# . . & 1 5 1 - 1 2 r a q 5 5 4 5 ",
"o.4 $ a g s 5 1 $ + $ 1 5 1 * b l.,XrX8Xs.N N n h N f.0XyXwX0X0X0XtXwXc.Z v b h b =.=XwX8XOXN & + $ = 5 5 * * 5 f s a s g s a 5 ",
">.a 4 s s a a 5 - % . $ 1 1 1 N .X;X:X-X+Xc.x.E.x.x.:XyX0Xc.s.s.z.8XyX9Xc.l.c.c.S.@X=X,X<X+XN & $ 2 4 1 4 5 4 a g s a g g g s 5 ",
"f.g 5 g a 5 s a 6 * # . * 4 5 o.x.OX+X-X8XrXtXtXrXrXyXtX+Xo.s s X.c.rXyXrXtXtXtXtXqX:X#X#Xx.m & = 2 1 * * q 8 s d f s s s s a 5 ",
"d.a 1 g 5 a g s r = # # * 5 r N -.s.[.-X8XtXtXyXyXyX0XOX;.b 6 5 g +.c.<XyXyXyXyXqX8X-Xc.s.o.r $ * : - 1 * 1 5 5 a s s s a s s 5 ",
"s.* # s a a s a 5 1 & * 5 9 a s h X.x.=X+X=X0XyXyXtX[.H d 9 9 2 a a n c.wXyXyXwX:X=X=Xl.N * & # # # 1 r 5 & * 4 u s d a a d s 5 ",
"l.X.a 3 5 a u g 5 $ & 4 s g a a 5 n 7.g.f.f.c.#X,X8X.Xa.@.K K J J o.-.D.8X8X=XE.k.f.f.=.s $ & . & 1 1 5 h g N H o.m a s a a 4 * ",
"=Xf.Z 4 * 8 8 u 2 % $ 4 f s a g a s b m b b b N d.&X8X8X=XD.S.h.D.%X<X8X%Xl.O. .h n H h a 5 = X $ 5 9 5 b s.c.c.g.o.a 8 9 u - # ",
"wX;X,.5 4 v  .H b 5 * 1 5 a a 5 5 4 2 5 5 r s m =.f.=XrXrX8X-X-X<XwXyX:Xl.=.N v 9 9 9 9 9 5 8 f g ' X.H *..X<X8X*Xs.J 9 8 1 $ # ",
"tXrXx.s v d.h.l.s.N 2 % * 5 6 5 * # & = 4 b =.d.;.X.;.%X8XrXtXtXqX<X=Xs.X.=.f.-.H a 9 2 $ - H a.g.l.k.z.@X8XyXrX9X&Xk. .3 % # $ ",
"yXyXE.h  .S.;X;X+X;.v 5 5 s g b a 1 2 5 4 v d.c.;.g N g.#X:X9XqX<X%Xl.W g #.@Xk.H 9 n h 2 9 ,.%X:X-X$X#X-XqXyXtXrX9X+X*.- . # 1 ",
"0XtXOXg H .X:XqX8X@Xs.;.;.;.a.s.a.>.d.-.g h s.@X;.s g X.O.-.-.;.-.@.O.h s o.c.d.n h >.g.,.d.=XtXtXtX9X-X-XwXtXyXyX9X+Xo.* O & 1 ",
":XwX#XN J f.#XqXtX<X&X#X=X=X=X=X;X%X+Xh.N N s.c.,.N g s 6 g f s 9 d g g M -.S.f.N n s.S.S.OX-X<X9X9X=X.X.X,XqXqX<X%XS.X.1 & $ * ",
"OXrX8Xs.+.=.f.8XyX8X;X<X0XwXqXrXwX=Xd. .g b s.OXx.7.X.s 2 a 6 a f q g N ;.x.#Xf.n g H O.@.*.*.*.=.*. .H O.;.a.d.a.;.@.N 6 * $ $ ",
"d.wXrX#Xd.b o.=XrX:X#X;X0XwXtXtXrX=X*.g d b -.[.+X@Xs.N g g g v m g h ;.@X#X+Xd.n f h v d z 0 > 3 3 ; : 8 i z x x k z z g 4 * $ ",
"s.rXyX9Xc.v n OX:Xz.a.d.l.x.c.c.x.g.a.o.h g  .;.c.#Xc.;.-.f.g.l.f.,.-.l.+XC.a.O.f k *.-.x j e p e p l l e U Q Q Q Q Q U i u 8 = ",
"7.0XyXtX$Xm v c.OX-.v g m v v g v o.f.l.O.g 9 h ;.D.+XOX$X8XwXrX8X=X+X+XD.d.H g s ' j.k.$.I ( } <.2.2.3.2.3.4.4...4.<...U j s 2 ",
",.8XyXyX=Xm v x.OXO.a 5 8 8 8 a q H c.;Xc.=.m a m ;.z.#X<X0XrXwX0X<X%Xx.>.X.f v 7.k.j.7.$.( _ q.J.Q.W.Q.W.R.I.R.W.J.8...^ l q 1 ",
";.#X0XtX$XN b g.c.*.s 8 d f d f s H g.;X8X%X7.s a m ;.c.$X=X%X=X-X%XOX;.n d d *.*X*X7.Y ! 3.} q.^.XX3X2X2X3X2X3XXXW.q.8.<.I 0 % ",
"N ;.@XrX,X;.o.a.s.X.a a a 9 a f  .O.;.x.9XtX#X-.o.o.@.>.d.d.d.g.h.d.,.@.X.o.=.l.&XE.1.Y $.4.t.J.K.W.`.2X6X5X4X`.^.W.T.t.0.( y > ",
"1 5 a.0XtX&Xa.O.M s q a g s g o.f.d.X.o.;XyXyX8X=Xx.;.' b N h n h h K >.z.=X<X@X-./ ] ] ..2.(.1XT...e.|.6X5X|.0...T.).!.w.3.] I ",
"o o O.qXtX:XE. .f x Q U l j 5 X.S.OXo.O.OX<X8X8X=Xz.#.b s g J m n 9 9 @.h.%X,Xl.N j / 4.t.J.!.).t.t ' V.}.}.V.' z 5.E.!.P.H.3.] ",
"X $ *.qXtX6XE./ x  .e.e.) z < v l.8X-Xc.s.O.o.O.X.N v g  .;.f.j.f.Z 9 d n J o.o.k l $.t.Q.).e./ x r ' { b.| { Z r c $.y./.I.q.} ",
"@ < -.0XtX6X_.} Q 5.!.R.3.l ; M ;.:XyX0X;.g s g d h f u #.&X;X;X=X=.9 9 h d 9 n y z ( G.'.3X5.c t 7 A [ | G S A B t R r.3X`.H.<.",
"; w 7.6XeX6X X} _ G.W.K.4.Q w v N d.0XyX:XOX@XOXx.f.o.g O.*XrXrX8X-.t X.,.x.D.d.E x ( G.'.6X/.u.{ C [ Z.A.M.F D A :.u.).4X`.t.^ ",
"3 z 1.{.3X4X XL.F.Y.~.J...^ j 5 s O.#XyXtXtXyXrX<X#X;.m &.;XyXyX0X7.c @.c.-XwX%X%.U _ F._.oX3X7XB.[ M.>X>XN.L F D B.1X4X3X`.0.^ ",
"< 3 l 5.J.I.~.L.K.~.^.F.( l 0 g O.s.f.f.f.f.l.f.a.-.Z s O.*X0X9X:X-.s m =.,.f.;.x I _ G.`.4X5X7XV.| v.A.A.m.m.n.| [.7X5X4X_.w.( ",
"= : 3 Q _ } L.I.I.~.~.9.I 0 @ n d.l.O.m m m m N m b g a o.[.-X=X#X+.a s h m b M y I _ H. X4X5X{.B.D G m.P m.P P [ p.1X5X4X_.t._ ",
"4 3 i  .3.q.I.~.^./.Q.0.Q i < v -.s.;.-.a.s.>.;.=.*.N g O.@X9X8X*X-.s b o.=.u.#.x I } G. X5X/.p.:.S D L P P G G [ { p.|.4X`.G.<.",
"4 u  .r.R.W.^.Q.!.).R.t.<.M u u g *.+X0X0X0XwX0X:XOX=.v &.:XyXyX8X-.d #.S.%X8X[.' I _ P.`. Xy.Y c V C D L L D C t t Y P.3X_.G.} ",
"u i  .r.P.W.K.0.0.y.K.t.6.R u 8 5 W x.:X=X=X=X#XOXf.o.g +.*XrXtX7X;.v X.k..X#Xk.E x ( y./._.i.%.Y t V :.v.b.:.C r c ] i./.Q.t._ ",
"0 p  .6.t.G.2.I e ~ 0.e.<.z < = 5 g N o.o.X.o.Z N m g a X.OX:X8X$X=.s g N m X.N i z / 4.y.H.!.(.6.z E p.}.}.V.' x 7.).!.y.w.0.] ",
"i k U  . .) ~ p x ..e.e.^ i : 3 N X.a a b m M H b N N s X.x.$X*X[.o.s b N b n b f z ! $.2.0.^.'.U.1.w.).7X7X{.5.$.R.|.!.0.3.<./ ",
"w i x x p p z #.k..XE.6.i < u o.#XOXm g *.k.l.l.l.g.=.g N l.;X:X[.#.g O.l.x.h.-.b g x R ^ 8.F.L.Y.(.].4X5X5X X|./.Q.P.G.3.<./ z ",
"< u i u 3 @ u =.S.S.k.R ; & 8 ;.0X9X;.o.a.c..XS.@Xx.;.X.O.f.OXc.l.&.' &.l.S.z.-.v u u z ~ ` F.F.K.oX2XoXoX2X].3X XR.0.8.) Y j w ",
"& * = < : @ 1 H K n g 4 & @ @ *.9XyX,Xl.;.X. .H X.X.=.;.;.+.o.' *.a.a.-.*.H J n d u q i x ~ 8.q.t.R.Y.Y.Y.Y.Y.W.P.P.0.~ p 0 > < ",
"@ * @ . @ & = - 8 = & @ @ @ @ Z +XtXtX8Xa.h b g g g #.c.l.N 6 5 g s.S.a.n v b h b g v v i l ^ } 4.4.....<.<.3.<.] <.<.I ; ; & @ ",
": 4 < @ & 4 8 = 1 - 1 4 8 8 4 s o.x.0XyX;Xx.OXOXl.d.z.*Xl.n 9 a b d.=X[.s.d..XOXS.S.#Xl.N , 0 l Y Y x l l Y T x y Y Y y & @ # X ",
"= u 8 * - 8 8 < * 4 8 f d u f 1 * m +XyXyXtXyXrX:X@X#X+Xd.m q a b ;.@X+X@X;XqXtXtXyXyX;X .@ O > 3 q 0 < , y w , > r y 4 ; # # # ",
"* 1 4 1 , 4 4 1 1 r s s s a s 5 . 1 o.l.:X9X%XS.s.>.a.-.o.h r 8 g X.;.;.s.d.l.#X8X:XOX;.f # % : 1 3 , 1 1 1 , * 1 q r 5 4 $ # * ",
"$ # : 5 2 * * 2 s s s f a s g a $ # * g f.OX=.h g g v h s f s a s g s g k g b =.x.f.m = # * 1 5 2 - - 5 q * * 4 a s 9 6 6 1 $ : ",
"& # * 5 2 1 = 4 5 4 1 1 3 5 5 1 & +   $ s.OX;. .X.H m a 2 5 4 4 5 5 5 h X.X.o.;.c.k.s . . # * 2 - # # 1 5 $ 1 5 g d 9 2 q 1 $ * ",
"# & $ * 1 6 4 * # # & $ $ $ $ $ # # . 4 s.#X[.S..Xg.=.v 4 * $ & * 4 s +.l.c.c.c.#Xg.d # . # & * % + # * 1 5 5 a s s f 4 - $ # & ",
"# $ # . * 6 5 * o # # * * & O % * 1 $ a a.*X=X:X:X#Xs.v 1 * * $ * 1 s ;.+X:X:X-X*Xd.a + o # % $ * # # % * r k s r f f 4 : # # # ",
"& # # + % $ * $ # + # 1 1 - + * 2 5 4 g s.&X,XqX9X#X=.5 = 5 3 * # * g ;.OX:XrX8X=Xl.s . . + , r 1 + + % * q f g f f f f r - & & ",
"$ * * - = % + o # # * 2 6 2 * 2 a a u n d.*X9XtX0X@X-.5 1 5 1 1 $ 1 g -.@X8XtX0X-Xg.s . # * 4 6 2 ; + # : 5 r f a f s a 5 2 * % ",
"* 1 6 5 1 # . . * 1 5 1 = 1 4 5 s u 5 m k.:XrXyX0X@X>.g 1 = * 4 5 a g -.@X8XtXrX=Xf.a # - 5 - * 1 2 - $ * 6 s s s s a 6 * 1 2 4 ",
"2 5 s s 4 $ + # * 5 6 = # = r u g a a N d.+X9XrX8X+Xd.b 4 $ * 5 g s b -.OX8XtX0X;Xf.s & 5 6 * $ - 9 2 $ o 2 9 d d a 9 2 # - 5 5 ",
"r a s g 2 * $ 1 1 1 1 , 2 r a 8 u g O.;.o.O.c.-X:X@X-.a - 4 1 6 s a g =.+X9XtXtX:Xk.a . * - - 2 2 - o o $ $ 2 6 d d d 5 2 - - * ",
"d u s s 6 * * 4 5 * * 2 a s a a f X.c.@Xo.H a..X=XOX=.1 * 6 6 a s 5 d -.+X8XrXwX*Xd.g $ o $ 4 9 6 o . o # $ * 2 8 d d 8 6 4 $ & ",
"s a s s 5 % $ = 4 1 1 1 1 5 5 b o.d.=X8X[.d.S.#X=X@X;.r * 1 4 a s u k ;.OX=X<X$Xd.=.X.b 5 * - 4 - 2 2 * o * - 1 4 8 a a 4 , - 1 ",
"a a s g 5 % # # & 4 r 1 $ * 5 X.f.;X0XyXtX0X:X#X#XOXd.b = % # 4 a a h -.c.#X=Xf.N N d.k.X.r - $ - 9 5 & + 6 5 - * 5 a 4 $ 1 5 r ",
"a s g s 2 & + o $ * 1 - 1 g o.d.OX:X9X0XrX0X,X#Xz.u.X.a $ * * 4 5 5 v ;.@X=X#Xc.d.k.=X:Xx.;.O.N g 2 % $ * - 4 1 - 1 4 1 * 1 1 - ",
"1 5 f 8 1 $ . . # # & * f O.x.@X#X$X$X*X=X;X=X@Xs.H 8 * # # & $ * 4 g ;.OX;X#X:X<X0XtXyXqX8X=Xg.N = . $ * # 1 5 2 - * 1 5 3 * & ",
"1 a g d 5 5 1 & + # $ 1 a o.d.k.f.d.d.d.d.d.f.f.#.b 5 1 * . + o & 1 s X.u.x.=X9XrXtXtXtXyXyXrX;Xf.X.f # . * % 1 2 : # 4 5 - & $ "
};
