/* XPM */
static char *result[] = {
/* columns rows colors chars-per-pixel */
"64 64 141 2 ",
"   c gray25",
".  c #414141",
"X  c gray26",
"o  c #434343",
"O  c #444444",
"+  c gray27",
"@  c #464646",
"#  c gray28",
"$  c #484848",
"%  c #494949",
"&  c gray29",
"*  c #4B4B4B",
"=  c #4C4C4C",
"-  c gray30",
";  c #4E4E4E",
":  c gray31",
">  c #505050",
",  c #515151",
"<  c gray32",
"1  c #535353",
"2  c gray33",
"3  c #555555",
"4  c #565656",
"5  c gray34",
"6  c #585858",
"7  c gray35",
"8  c #5A5A5A",
"9  c #5B5B5B",
"0  c gray36",
"q  c #5D5D5D",
"w  c gray37",
"e  c #5F5F5F",
"r  c #606060",
"t  c gray38",
"y  c #626262",
"u  c gray39",
"i  c #646464",
"p  c #656565",
"a  c gray40",
"s  c #676767",
"d  c #686868",
"f  c DimGray",
"g  c #6A6A6A",
"h  c gray42",
"j  c #6C6C6C",
"k  c #6D6D6D",
"l  c gray43",
"z  c #6F6F6F",
"x  c gray44",
"c  c #717171",
"v  c #727272",
"b  c gray45",
"n  c #747474",
"m  c gray46",
"M  c #767676",
"N  c #777777",
"B  c gray47",
"V  c gray48",
"C  c #7B7B7B",
"Z  c #7C7C7C",
"A  c gray49",
"S  c #808080",
"D  c #818181",
"F  c gray51",
"G  c #838383",
"H  c #848484",
"J  c gray52",
"K  c #868686",
"L  c gray53",
"P  c #888888",
"I  c #898989",
"U  c gray54",
"Y  c #8B8B8B",
"T  c gray55",
"R  c #8D8D8D",
"E  c #8E8E8E",
"W  c gray56",
"Q  c #909090",
"!  c gray57",
"~  c #929292",
"^  c #939393",
"/  c gray58",
"(  c #959595",
")  c gray59",
"_  c #979797",
"`  c #989898",
"'  c #9A9A9A",
"]  c gray61",
"[  c #9D9D9D",
"{  c gray62",
"}  c #9F9F9F",
"|  c #A0A0A0",
" . c gray63",
".. c #A2A2A2",
"X. c gray64",
"o. c #A7A7A7",
"O. c gray66",
"+. c #A9A9A9",
"@. c #AAAAAA",
"#. c gray67",
"$. c #ACACAC",
"%. c gray68",
"&. c #AEAEAE",
"*. c #AFAFAF",
"=. c #B2B2B2",
"-. c gray70",
";. c #B4B4B4",
":. c gray71",
">. c #B6B6B6",
",. c gray72",
"<. c #B9B9B9",
"1. c gray73",
"2. c #BBBBBB",
"3. c #BCBCBC",
"4. c gray74",
"5. c gray",
"6. c gray75",
"7. c #C0C0C0",
"8. c #C1C1C1",
"9. c gray76",
"0. c #C3C3C3",
"q. c gray77",
"w. c #C5C5C5",
"e. c #C6C6C6",
"r. c gray78",
"t. c #C8C8C8",
"y. c gray79",
"u. c #CACACA",
"i. c #CBCBCB",
"p. c gray80",
"a. c #CDCDCD",
"s. c #CECECE",
"d. c gray81",
"f. c #D0D0D0",
"g. c gray82",
"h. c #D2D2D2",
"j. c LightGray",
"k. c gray83",
"l. c #D5D5D5",
"z. c #D7D7D7",
"x. c #D8D8D8",
/* pixels */
"% # - 6 7 2 2 4 4 2 2 4 6 6 5 4 < , 4 6 3 < 2 7 4 3 5 5 4 1 5 7 8 7 2 1 7 9 2 6 6 2 < 3 7 , 3 0 q 6 2 2 4 5 3 > > 7 6 = o & * 8 ",
"O + ; 0 r r y t 0 r t e q e u p u t e y p u y r e e e w q q t e e r u y e r p u y i p p y a p u i a f d a i s p p s r < O @ + < ",
"% = 5 i d s d d a a a d d f d f d i t i f d p s g g a u i d f d a s k l d u g u u d h d u j d t y s g a u a a a d d i w : * o ; ",
"4 9 p h g d a s a u i d h f p s u t i a p u p s f g a u i d s g f a s g f p i y p d p y p u i p a a p t t a u i i y y s w 5 % > ",
"8 i j k f a u 0 8 y i 0 6 q p i 9 q f g w 0 y u 0 8 e u r 6 8 p d 0 3 0 i i 0 t f a 9 8 p p d h f d x D T P L U H c u a p 9 % < ",
"3 y h g a u t 1 - y i < @ , p 7 - , e e , : 7 q > - 6 r 8 - , w y 1 & 1 q 9 - 3 w 9 - * 7 s d i e a F #.q.3.4.9.;.T f i i 7 + : ",
"< t g a r w 7 ; - 7 8 > % > 0 3 & * 6 6 - = 1 5 , : 1 4 2 ; ; 9 0 ; * 3 7 < * * 3 7 = # , t u p h A [ 7.j.f.g.x.e.^ h a p 5 @ , ",
"2 u g a q 1 : 4 4 - = 3 9 4 = 2 8 6 > > 6 7 < : 4 8 3 = : 7 6 < - < 7 5 > : 5 1 1 5 4 < ; : 7 g I @.4.e.s.p.a.h.8.Q f s a 7 # < ",
"4 i d a e : - 7 8 : - 5 q 6 = , e 9 & * 8 9 < > 4 9 5 ; > 9 0 - $ 5 e 2 = 1 i e < > 0 w , @ < f ( q.f.p.s.u.i.f.6.Q f i p 7 # < ",
"6 p a u p q 1 ; : 8 0 < = < w 6 - = 7 8 , : 3 9 3 ; > 7 8 ; * 5 0 , - 2 8 e h y 7 5 e i r 5 0 j ( q.g.p.p.u.i.f.6.Q f i p 7 # < ",
"6 i p u s e 3 ; ; 0 w < & , t 7 & & 0 q > - 4 0 3 = : 9 9 - # 8 t > & 6 u i s a j l c c d t u k / q.j.i.i.u.i.f.6.Q f i p 7 # < ",
"4 i d a y 3 , 6 4 < < 3 6 4 , 1 6 6 < < 4 5 2 < 2 5 4 1 1 5 , 3 2 , 4 r p u i M ^ | | / Z p y g ! 0.j.p.i.u.i.f.6.Q f i p 7 # < ",
"2 u g f e ; : e q = & 6 t 6 # : r r = * 8 q 1 = 2 w 9 - - w 9 > & 3 e u p a d P ;.e.y.>.Y u e f Q 0.j.i.i.u.i.f.6.Q f i p 7 # < ",
"3 i d s u 3 1 8 5 < < 4 6 3 > 1 5 6 3 2 3 5 3 , 1 5 5 1 < 5 6 < , 2 4 9 d N P ..0.p.f.7.P u t j ^ q.h.i.i.u.i.f.6.Q f i p 7 # < ",
"4 i p p g u 8 : = w r , # > y 8 @ % y t - & 6 q 1 & > w 9 & = 5 w 1 # , j E 2.w.g.i.d.9.J i p v ` e.h.u.u.u.i.f.6.Q f i p 7 # < ",
"2 a h d i 5 3 4 , 7 7 1 : 1 8 1 - 1 r 9 = ; 7 6 < ; 6 d y = 6 q i 5 , 1 p ^ 7.g.p.p.d.4.L s t f ^ w.g.i.d.a.s.h.8.~ g i i 6 + > ",
"> i g i 8 * * 9 w - & 6 r 5 # , w 8 & = 9 9 > = 1 8 y f a q 5 9 p e e t s W 7.g.p.p.d.4.L s t f ^ w.g.i.d.a.s.h.8.~ g i i 6 + > ",
"> t a y 9 : * 7 9 = * 6 r 6 & < w 7 $ - w q ; ; 7 u p u h C Z Z A l g d d R 8.g.p.p.d.4.L s t f ^ w.g.i.d.a.s.h.8.~ g i i 6 + > ",
"2 r u p d w 6 , & 7 0 1 - 3 u 6 ; ; 9 0 < : 4 0 y a r r B ] 1.,.+.S f y s R 8.g.p.p.d.4.L s t f ^ w.g.i.d.a.s.h.8.~ g i i 6 + > ",
"4 u a s f w 7 < * 9 w , * 1 y 6 * - q q ; - 4 0 t s g b ^ <.l.x.e.E a 9 s ! 7.g.p.p.d.4.L s t f ^ w.g.i.d.a.s.h.8.~ g i i 6 + > ",
"1 a h a q > ; 6 7 , > 4 8 3 - 2 0 6 = : 9 8 , : 6 g D ' ;.r.u.h.y.~ d q s ~ 7.g.p.p.d.4.L s t f ^ w.g.i.d.a.s.h.8.~ g i i 6 + > ",
"> i g p 9 - = 9 0 ; = 5 q 5 % 3 a y & - y u 2 = 2 d W <.p.u.r.s.0.R f t d E 7.g.p.p.d.4.L s t f ^ w.g.i.d.a.s.h.8.~ g i i 6 + > ",
"< t a i t 6 3 < ; 4 6 3 < 2 5 9 s i 6 4 r p w 5 5 s Q 8.g.y.s.g.8.U d t s T 7.f.p.p.d.4.L s t f ^ w.g.i.d.a.s.h.8.~ g i i 6 + > ",
"5 e a a i e 7 * # 0 r 1 & < t p h a l l g l f i e h Y 2.i.i.p.f.0.T s e d Q 6.d.i.p.d.5.P s t f ^ w.g.i.d.a.s.h.8.~ g i i 6 + > ",
"3 e g g q > 1 4 3 1 , , 4 w a s d j T ] / T B u t j R 4.a.i.p.f.0.T s e d Q 6.d.i.p.d.5.P s t f ^ w.g.i.d.a.s.h.8.~ g i i 6 + > ",
"3 r h h 9 : , 9 9 : % > w i p t d V %.u.9.:.! p y h E 6.s.a.p.f.0.T s e d Q 6.d.i.p.d.5.P s t f ^ w.g.i.d.a.s.h.8.~ g i i 6 + > ",
"6 t d d t 7 3 3 4 1 , < 4 0 r z P { 0.z.f.8.) s u h E 7.d.p.p.f.0.T s e d Q 6.d.i.p.d.5.P s t f ^ w.g.i.d.a.s.h.8.~ g i i 6 + > ",
"9 y a a p y 5 = - 0 q , & < r F &.9.i.d.p.3.! g u g R 7.d.i.p.f.0.T s e d Q 6.d.i.p.d.5.P s t f ^ w.g.i.d.a.s.h.8.~ g i i 6 + > ",
"8 y d s t 0 2 - : 7 7 : = 3 t J 2.d.i.y.s.7.~ h y d Y 7.s.u.p.f.0.T s e d Q 6.d.i.p.d.5.P s t f ^ w.g.i.d.a.s.h.8.~ g i i 6 + > ",
"7 y j g 0 ; : 5 5 - % ; 7 r e P 6.f.u.u.h.9.~ j t s Y 6.a.y.p.f.0.T s e d Q 6.d.i.p.d.5.P s t f ^ w.g.i.d.a.s.h.8.~ g i i 6 + > ",
"1 a g i 9 ; = 9 u < @ 5 a i u L 5.f.p.i.g.7.Q g y f R 9.f.p.p.f.0.T s e d W 4.d.p.a.f.5.L s t f ^ w.g.i.d.a.s.h.8.~ g i i 6 + > ",
"1 a f i i q 0 r r 6 , q a y u L 5.f.p.i.g.7.Q g y f R 9.f.p.p.f.0.T s e d W 4.d.p.a.f.5.L s t f ^ w.g.i.d.a.s.h.8.~ g i i 6 + > ",
"2 p s u a a f z m N c k a r u L 5.f.p.i.g.7.Q g y f R 9.f.p.p.f.0.T s e d W 4.d.p.a.f.5.L s t f ^ w.g.i.d.a.s.h.8.~ g i i 6 + > ",
"2 i a y r e k Y o.#.{ G d e u L 5.f.p.i.g.7.Q g y f R 9.f.p.p.f.0.T s e d W 4.d.p.a.f.5.L s t f ^ w.g.i.d.a.s.h.8.~ g i i 6 + > ",
"1 u d i y f F %.p.s.3.W f r i L 5.f.p.i.g.7.Q g y f R 9.f.p.p.f.0.T s e d W 4.d.p.a.f.5.L s t f ^ w.g.i.d.a.s.h.8.~ g i i 6 + > ",
", i f d m Y +.w.g.k.9.Q d t i L 5.f.p.i.g.7.Q g y f R 9.f.p.p.f.0.T s e d W 4.d.p.a.f.5.L s t f ^ w.g.i.d.a.s.h.8.~ g i i 6 + > ",
"2 a i u K *.q.u.u.d.8.Q f u t L 5.f.p.i.g.7.Q g y f R 9.f.p.p.f.0.T s e d W 4.d.p.a.f.5.L s t f ^ w.g.i.d.a.s.h.8.~ g i i 6 + > ",
"4 s t e T 5.a.y.u.f.0.~ g y e L 5.f.p.i.g.7.Q g y f R 9.f.p.p.f.0.T s e d W 4.d.p.a.f.5.L s t f ^ w.g.i.s.a.s.h.8.~ g i i 6 + > ",
"4 i i i P 2.g.s.a.h.8.! g u y L 5.f.p.i.g.7.Q g y f R 9.f.p.p.f.0.T s e d W 4.d.p.a.f.5.L s y g / w.f.u.a.a.s.h.8.~ g i i 6 + > ",
"4 i i i P 2.g.s.a.h.8.! g u y L 5.f.p.i.g.7.Q g y f R 9.f.p.p.f.0.T s e d W 4.d.p.a.f.5.L s y g / w.f.u.a.a.s.h.8.~ g i i 6 + > ",
"4 i i i P 2.g.s.a.h.8.! g u y L 5.f.p.i.g.7.Q g y f R 9.f.p.p.f.0.T s e d W 4.d.p.a.f.5.L s y g / w.f.u.a.a.s.h.8.~ g i i 6 + > ",
"4 i i i P 2.g.s.a.h.8.! g u y L 5.f.p.i.g.7.Q g y f R 9.f.p.p.f.0.T s e d W 4.d.p.a.f.5.L s y g / w.f.u.a.a.s.h.8.~ g i i 6 + > ",
"4 i i i P 2.g.s.a.h.8.! g u y L 5.f.p.i.g.7.Q g y f R 9.f.p.p.f.0.T s e d W 4.d.p.a.f.5.L s y g / w.f.u.a.a.s.h.8.~ g i i 6 + > ",
"4 i i i P 2.g.s.a.h.8.! g u y L 5.f.p.i.g.7.Q g y f R 9.f.p.p.f.0.T s e d W 4.d.p.a.f.5.L s y g / w.f.u.a.a.s.h.8.~ g i i 6 + > ",
"4 i i i P 2.g.s.a.h.8.! g u y L 5.f.p.i.g.7.Q g y f R 9.f.p.p.f.0.T s e d W 4.d.p.a.f.5.L s y g / w.f.u.a.a.s.h.8.~ g i i 6 + > ",
"4 i i i P 2.g.a.p.g.9.~ g u t L 5.f.p.i.g.7.Q g y f R 9.f.p.p.f.0.T s e d W 4.d.p.a.f.5.L s y g / w.f.u.a.a.s.h.8.~ g i i 6 + > ",
"4 i i i P 2.g.a.p.g.9.~ g u t L 5.f.p.i.g.7.Q g y f R 9.f.p.p.f.0.T s e d W 4.d.p.a.f.5.L s y g / w.f.u.a.a.s.h.8.~ g i i 6 + > ",
"4 i i i P 2.g.a.p.g.9.~ g u t L 5.f.p.i.g.7.Q g y f R 9.f.p.p.f.0.T s e d W 4.d.p.a.f.5.L s y g / w.f.u.a.a.s.h.8.~ g i i 6 + > ",
"4 i i i P 2.g.a.p.g.9.~ g u t L 5.f.p.i.g.7.Q g y f R 9.f.p.p.f.0.T s e d W 4.d.p.a.f.5.L s y g / w.f.u.a.a.s.h.8.~ g i i 6 + > ",
"4 i i i P 2.g.a.p.g.9.~ g u t L 5.f.p.i.g.7.Q g y f R 9.f.p.p.f.0.T s e d W 4.d.p.a.f.5.L s y g / w.f.u.a.a.s.h.8.~ g i i 6 + > ",
"4 i i i P 2.g.a.p.g.9.~ g u t L 5.f.p.i.g.7.Q g y f R 9.f.p.p.f.0.T s e d W 4.d.p.a.f.5.L s y g / w.f.u.a.a.s.h.8.~ g i i 6 + > ",
"4 i i i P 2.g.a.p.g.9.~ g u t L 5.f.p.i.g.7.Q g y f R 9.f.p.p.f.0.T s e d W 4.d.p.a.f.5.L s y g / w.f.u.a.a.s.h.8.~ g i i 6 + > ",
"4 p p i I 3.h.a.p.h.0.^ h y t K 6.g.p.i.h.8.! h y f E 9.g.a.p.f.0.E s w f W 6.d.p.a.f.4.L a r g ( w.g.i.p.a.s.j.9.~ f i i 6 + > ",
"< f g a Y 7.k.i.u.l.q.) k w i L 6.j.a.p.h.9.~ l y g ^ 6.h.d.i.g.9./ p 9 l E 9.a.s.p.g.1.K i 0 j _ 9.h.p.r.u.i.h.0.Q s i a 8 # < ",
"> a s i G #.q.y.e.q.&.U h u s K +.5.p.a.8.%.P d q s I #.6.r.i.h.9.! a r z K $.6.a.d.g.<.F a y k T #.6.t.i.p.e.7.$.L h f u 5 # < ",
"3 d p r x G ' 3.e.O.P c s p p c S ` 0.q.} H x d e p b H  .8.f.x.e.! s y g c D  .w.h.l.6.P f p a b K X.9.l.l.9.X.J z s s i 6 # < ",
"2 i y w p d Z +.>.P d e p a y p a C =.-.J f u f i a u i D %.7.r.:.P a t p t r D $.5.0.;.L f p t w d K &.r.e.&.J i q u i a 9 $ 1 ",
"5 u i i s y x U U c r r a a y s r a W Q x i y s p d a r k L W ( T b u u s p t l J E Q T n p a i w e c P / ! P x w y g p s 0 # , ",
"8 y a d g y a j s d d d s s a p u 9 g h t p y p u a f s a g f g g a p i f k g s g f d g u u d d i u d h s p j d p g k p t 3 O > ",
"& 1 8 u g d i i i f h d p s d p x p y y d l a f p t y s s i s y u h g u i d i t u i u u y p s i r p j p 0 t d d a s p q 6 ;   > ",
"X o ; 0 a p i i i i p i u i i i a i u u p a i i i y y i i u i u u p p u u i u y u i u u u i i u y i p i u p u i s d t 6 # . O ; ",
"& @ * 5 0 7 6 7 6 6 6 6 6 6 6 6 6 6 6 6 6 6 6 6 6 6 6 6 6 6 6 6 6 6 6 6 6 6 6 6 6 6 6 6 6 6 6 6 6 6 6 6 6 8 6 7 9 9 4 : X o : 7 ",
"* + o % % + @ @ + + + + + + + + + + + + + + + + + + + + + + + + + + + + + + + + + + + + + + + + + + + + + # # # $ # +   O : 0 y ",
"8 < ; > < > , , > > > > > > > > > > > > > > > > > > > > > > > > > > > > > > > > > > > > > > > > > > > > > < < < 1 , > > : 7 y w "
};
