/* XPM */
static char *result[] = {
/* columns rows colors chars-per-pixel */
"64 64 54 1 ",
"  c #3A3A3A",
". c gray23",
"X c #3C3C3C",
"o c gray24",
"O c #3E3E3E",
"+ c #3F3F3F",
"@ c gray25",
"# c #414141",
"$ c gray26",
"% c #434343",
"& c #444444",
"* c gray27",
"= c #464646",
"- c gray28",
"; c #484848",
": c #494949",
"> c gray29",
", c #4B4B4B",
"< c #4C4C4C",
"1 c gray30",
"2 c #4E4E4E",
"3 c gray31",
"4 c #505050",
"5 c #515151",
"6 c gray32",
"7 c #535353",
"8 c gray33",
"9 c #555555",
"0 c #565656",
"q c gray34",
"w c #585858",
"e c gray35",
"r c #5A5A5A",
"t c #5B5B5B",
"y c gray36",
"u c #5D5D5D",
"i c gray37",
"p c #5F5F5F",
"a c #606060",
"s c gray38",
"d c #626262",
"f c gray39",
"g c #646464",
"h c #656565",
"j c gray40",
"k c #676767",
"l c #686868",
"z c DimGray",
"x c #6A6A6A",
"c c gray42",
"v c #6C6C6C",
"b c #6D6D6D",
"n c gray43",
"m c #6F6F6F",
/* pixels */
"<49w0800wady98q-;&O=78577wajgp0agpq3*$43=*9i83798550yhdst67pfar6",
"=*3yq,>qdjg0:&*<>*%,9r7;6yghsuplxgt02=&&%,ru430t912rgfapt529p024",
">2799667wy9;@-54:&*,4wq27raghggljt997,@+@;79599855egczjjft869632",
"6st;3ds3:>&O#6h8;#&&*1ri728ikxhhp628rq:*%%*1qe4-1ylkhclllhu0:qu5",
"2e6%;e0>*##=28qe4>;%#-8e1=;5eiuu0>;6ye;**;<500626turqeewrr02$3e9",
"&*%%=-%#@+-0iw>ye81=&-:*===-;,;,:@+=,;##*3rr329yw2-;>-:==>>&@@:9",
":;*#=>-$%;4wr048e0,&**#O#*::=%@;1:=*#O$*&:et>:6w7-@#*>,=$=>:$+%,",
"9e6&>qq<>0e6<5r96,&$%#%=O#2q6-&7sar5=+*=%%,2;;><,:*$=ew<-5e7*$&:",
"wr939ii2=0r7<6yy2%$&&#*:%-7yw1:tcvdw<*%$$&=;=&**=-:>1tr21ijw3-;4",
"843qdfe<&:4qe04807>=-*@$4e934qefxkfar2%-%*80;#$%$%>qy236tffayeew",
"637ackt5;%-8y0,8iu3&*-%=wi7>5agllghlg0&<><er2;=&%;6yi<1tkkgljkky",
"7qphljsu7;$:8q8ufa3@@-288636ygjkhflvje;28q87903:19r96qwfclhxlcxr",
"8uhhfgjkp4%%<wahji<O#>qi3>6pjhgjjgkcgw,<qt3<ry7<5tu3>ipgzkjljxkw",
"70ydgfkxf8;;5ijjlu;&19wq56tjljfklhhlge>-2075e71:<7063qrahkjgjkge",
"7>4dlfgzd7,5ydhfzu:,ua6,qsjhhkhzxhgjhr:%$2ty8-=*%=2ry>2ehlgslkhp",
"657quflvf,&8lvfkhy1*>qw<5wakzzcjdfhde5:&:90891&@=<49q,qfkgdsdde;",
"ur857yjxp1:wlzdgsr3--<0u510sjgdfgkgt,#$3rw<<wd7=1ew31tpgjkkkgu5%",
"ww0860aji3;3yghfy5>&$*3t8450uggjkhy4&.O8gi4<0s7;4yt4<etahjgau6-$",
"%,0tw69ps5&#,tjs8=%$#*=:ei8<8sbcgw<==*%4pkdw4>&%>57qe29alzd05=#:",
"+*5r7;;8y7:@%2r7;&><=*=:qt5-,qgsw,#O&::5izbf7-&&=*-9y;3qsdy9-o@4",
"1:<5>@%,4081==,-$:qe<*2y7,=*-:21,=@+%-5uhlzhir5;-&%>2$%*;:>>%O&6",
"7>;2>#*:,qt9<:,>*,rr2<0y5=##&;&**&*:<6iklhjkfp6**;=&&&=-*%%%;*=1",
"1%:w7&-599989qee72445wq23;@o=55=$:70tdkkfdlkt5:#&--%=7que,*,93-:",
"=%5pr>>ei4,0fljghr,<wy5%-*$*3tu<=qgffkjgssgi3:;*%%=;1isxg2-9s0>,",
">0e46rw5<30akjdhhfuq62;%$*20wq59tpgkjffkvh93w0<$O%<5qfjjdie66962",
"4au,3au1;8alzhshkzht5:=*$-6te61wfgkclfhjza2>et6-#*4ygkzhfha6;7e0",
"8ee88q738pjlhghfzku995,&&-178867qsxclkxfr8886qw8<;4sblkjhiq729w9",
"6<4te1,7ajlhsflfzs3,9t5#**=:6tw2<ehjjzzu21tu15et8><ixgfga828ue2:",
"<*:9q328yfkhdhkkzi>&2w9,>=$&2q0746eafdyw66ee57093;:7usau0569r8-$",
"=-=:6ee75uhljjkczu1%=3ei7:&%*;3yp43ude10py43rq6:**;>2pd01qpw,-*;",
"@%%%2ee<&4tsppsdde>%&>5q5*+%*O<w0==9u8=<ww,>tt5:;*#*198218re=$*-",
"->;&=,;%*;1442>,1,=>7w811*@%*$#23=$:-$=*1<@O<<&@&*$&:3<&#;1=$%=,",
"&;:%$%#$&$$$$$%#@@=6ty6%%#%::&X&=#@&@O%#->$+;>*&:<-%$==O.=>+@*,4",
">1<=#@%$$&%@%<95=&4w8,-$o+<05=&$+O%284%*4ew0eyewrr6=@#%+%6w2%>76",
"te82*$=;-&&=<0iy31tp4*%%$;8r041&O%18yr>5izxkglzjfpw2=%&-2wuw;6w6",
"e09q97qe5=%,90506qfjt8,%<0w87r5*%3q8579ujbvkdjzjuqq94:-1996838q5",
"3<6ahfhhr1:6e7:4yhkkks6*6yw13uq-*9u7<5udjkjgfhzh026ee2:9i7:8r956",
"56egxjduq8790848kmjgzd6;39044w7;*5eq80wigghjkzvkq36q0<-4r94qr64q",
"9ajhlla2;eu6>5iaxvdfls6=$=6yr7@*=#;qpq;9ahkjkhzlsit5*#%+*ea7:4tg",
"egxccki76we968rizbjkcd6=;10tw624<**3ew7tsghjzdjkae95<*;1667w5qaz",
"ahzzkjfdu410uq,0skhjla4*8r0450ppw<*=<7idjjhghfkjr32qe<10e3>8tafz",
"dgjjdaaft;%4yq:0pgfdaw,=9r618plkdq<*%>ydzxzjhkhu934et1,7e824ysgk",
"takki722>=&=18rdjlgpq<=*-,6eajhggse1**,qdlzllfw48yt7,&%;5ee74qaz",
"60pa9=%*->=#$4passuq2=%*&:6tsghsdjd8;$+,0uipae,*4ue:+@##:9w6*,wf",
"<<34:%>90<$+&,512341;*$*8r6,6injglh8&+#;233355=@;1>***-**;,;%-29",
"%--#@-5er4:--=&=%%-=%=*=rp5=3azghzf7:=&*-;;;=&##%====<:*%==&&=*%",
"284=,qrqq9wette2=%*=&-387668tahgkxs6:<856qe81%$%>43;&67;$>5>=%$%",
"wuw39di65rshkklw,%&;>1wa4:5phffhzly2;4fpskjy4==,8ye2-0u4*9a0,%#-",
"49q99q88rdllkjlt<#&,39ee066qphhkla6;=3hjlji6;-<7wew978t97pkp0:&<",
"*-7y8><tkxczjjzw:+&<7r0<ti5:5phjs7-%&<ijlu1%$:5e9<<ep35efjhfa5;2",
"#&3r015qerewwet5=@*<307<rt1%=6rt0;##&>qui7=#%;491#$7i56uzlasi7:>",
"#=-;7pe1-**;>:;,*%-::28w92-$&;>1>$@=-=<<>;***=:,;$$;4rtdjjat3>*&",
"#-@ 1fr;&$*:,-#=:,1,**6i5=#%=;&&$%:<>;:#O#=-%$=>;*%$-sjhdhfe>*%#",
";=%%*;1:@+=6w5&@yjie,@*<>=#&3eu-+7sueut7:&&&##7i7&#-1ijlggjfd3:*",
":<33>*%*-=2raq>2dkdp9<>**%*>6qy62ehkjhpw6,$#;4wiw,&*<ygkghjfp97-",
"29uy4%++*6tq78eulxjhsw4*O+<ew550ydlcku48tq-*9i05qe6:,ihljhgu47p9",
"wilj9*&&-ey5:8hjzzjkji7>#&9sy3<egghls8;2rt<;ea5>9u0<>wdklkfw>2au",
"sfxxw:,9q746eagljkjhla3;5qqq0qefkdajgay333;*,880w6;->>wajckye792",
"jgkze><yp3>9fjskgjkfls<&0i025tdllfdjlzl0,-*$%1wae>$*:=4qilzdf94*",
"lfhkw-:688537ykhdlzfld1*188789tphxcjdi0w8,-;:3qw525<=346qshdr376",
"ssklw*@&,tu3-8kggjkjhs8&&>0yq<1egggkgw*4yy<;0y5:6tq>-rr1-9pw>5rt",
"sgckw=+@&287545igxvku9,$-1772:%3ysdae65wdp2*3e87q02=*6q85qe44008",
"thcgw1*&==2qt919ihhy5:*-6w91-*#=3ey9<1ufji4--<9r8,*%%=2et8<2w8<>",
"2ijae81-==;38096eur6<,16tsu6:&1-:7q527uhgy6,=&5e6;;;*&;qu1*8e5;,"
};
