/* XPM */
static char *result[] = {
/* columns rows colors chars-per-pixel */
"64 64 229 2 ",
"   c #3E3E3E",
".  c #75421D",
"X  c #7C441B",
"o  c #47413D",
"O  c #5A4639",
"+  c #6A462C",
"@  c #754523",
"#  c #794623",
"$  c #7B4926",
"%  c #754729",
"&  c #74482B",
"*  c #7D4C2A",
"=  c #694A35",
"-  c #734C31",
";  c #7B4E30",
":  c #6E503A",
">  c #79523A",
",  c #444444",
"<  c #484646",
"1  c #4A4847",
"2  c #4B4B4B",
"3  c #544842",
"4  c #544A43",
"5  c #514D4C",
"6  c #4F504F",
"7  c #51504F",
"8  c #5C524B",
"9  c #4E4E52",
"0  c #535354",
"q  c #5A5653",
"w  c #5A5957",
"e  c #55555B",
"r  c #575858",
"t  c #5B5B5B",
"y  c #655448",
"u  c #765C4B",
"i  c #625B57",
"p  c #6B615B",
"a  c #7A675A",
"s  c #555561",
"d  c #5C5C64",
"f  c #5C5C6B",
"g  c #605F66",
"h  c #646464",
"j  c #686766",
"k  c #64636D",
"l  c #696969",
"z  c #756C67",
"x  c #7C746F",
"c  c #646472",
"v  c #6A6A73",
"b  c #66677B",
"n  c #6B6B7B",
"m  c #716F77",
"M  c #787575",
"N  c #72727B",
"B  c #7C7C7C",
"V  c #804B25",
"C  c #814E2C",
"Z  c #83512E",
"A  c #8B532C",
"S  c #865431",
"D  c #865737",
"F  c #895634",
"G  c #8B5936",
"H  c #8E5B39",
"J  c #935C36",
"K  c #915F3C",
"L  c #92613E",
"P  c #855E47",
"I  c #825F53",
"U  c #956341",
"Y  c #896953",
"T  c #886856",
"R  c #866B6A",
"E  c #8A7269",
"W  c #9A7C68",
"Q  c #8B7576",
"!  c #8E847F",
"~  c #968478",
"^  c #BA8A66",
"/  c #B0876B",
"(  c #AD8971",
")  c #C2916D",
"_  c #CB956E",
"`  c #C79877",
"'  c #D19F7B",
"]  c #D6A47F",
"[  c #6D6D87",
"{  c #706F8F",
"}  c #73738D",
"|  c #78798B",
" . c #767694",
".. c #7B7A9B",
"X. c #7E7EA7",
"o. c #7E7EB4",
"O. c #887D8C",
"+. c #807FA1",
"@. c #848384",
"#. c #88888B",
"$. c #928E8F",
"%. c #98908C",
"&. c #8B8697",
"*. c #978994",
"=. c #949495",
"-. c #98989A",
";. c #9C9B9B",
":. c #B09D90",
">. c #B7A396",
",. c #8282A4",
"<. c #8383AB",
"1. c #8A89AB",
"2. c #968FA7",
"3. c #9999A7",
"4. c #8585B6",
"5. c #8A8AB3",
"6. c #8686B9",
"7. c #8887BA",
"8. c #8B8BBC",
"9. c #908FBD",
"0. c #9896B2",
"q. c #9393BD",
"w. c #9B9BBD",
"e. c #A4A4A6",
"r. c #B4ADAA",
"t. c #A5A5BE",
"y. c #AAA9BC",
"u. c #BDBCBC",
"i. c #C79D81",
"p. c #C9A285",
"a. c #C9A68B",
"s. c #DAA986",
"d. c #DDAA85",
"f. c #CFAD95",
"g. c #E1AC87",
"h. c #E7B38D",
"j. c #F4B88D",
"k. c #E4B392",
"l. c #E9B895",
"z. c #CEB9AC",
"x. c #DABCA7",
"c. c #F6C29E",
"v. c #C5C1BE",
"b. c #F5C4A2",
"n. c #F7C8A6",
"m. c #FCC9A5",
"M. c #F4CBA9",
"N. c #FECDAA",
"B. c #FFD2AD",
"V. c #8E8EC1",
"C. c #918FC1",
"Z. c #8F90C2",
"A. c #9292C4",
"S. c #9997C5",
"D. c #9C9CC3",
"F. c #9595C9",
"G. c #9897C9",
"H. c #9798CB",
"J. c #9B9BCC",
"K. c #9D9DD1",
"L. c #A29EC5",
"P. c #A09FD2",
"I. c #9FA0CE",
"U. c #9FA2D5",
"Y. c #A5A5C2",
"T. c #A8A7C1",
"R. c #ABABC4",
"E. c #A3A3CB",
"W. c #ADACCC",
"Q. c #B6B5C4",
"!. c #BBBBC6",
"~. c #B4B4CB",
"^. c #B0B0CF",
"/. c #BCBCCA",
"(. c #A3A3D5",
"). c #ACACD4",
"_. c #A6A6D9",
"`. c #A8A7D9",
"'. c #A7A8DA",
"]. c #ABABDC",
"[. c #B5B4D4",
"{. c #BBBAD4",
"}. c #B4B3DB",
"|. c #AEAEE1",
" X c #B0AFE1",
".X c #AFB0E2",
"XX c #B3B3E4",
"oX c #B6B6E9",
"OX c #B9B7E9",
"+X c #B7B8EA",
"@X c #BBBBEC",
"#X c #BEBEF1",
"$X c #C0BFF2",
"%X c #BFC0F1",
"&X c #C4C3CA",
"*X c #C6C5CA",
"=X c #C9C9CC",
"-X c #DCD2CB",
";X c #C8C8D5",
":X c #D4D4D3",
">X c #D6D6D9",
",X c #DCDCDC",
"<X c #E1D0C3",
"1X c #E4DED9",
"2X c #E0E0DD",
"3X c #EEE4DB",
"4X c #F0E4DB",
"5X c #C4C4E6",
"6X c #C3C3EA",
"7X c #DADAE9",
"8X c #C2C2F4",
"9X c #CACAF7",
"0X c #C6C6F9",
"qX c #CCCCFD",
"wX c #CFD0F8",
"eX c #D5D5F3",
"rX c #DBDAF0",
"tX c #D2D2FF",
"yX c #DCDCFD",
"uX c #E3E3E2",
"iX c #E8E5E9",
"pX c #ECECEA",
"aX c #F2F0ED",
"sX c #E8E8F5",
"dX c #E3E3FD",
"fX c #EBEBFC",
"gX c #F3F4F4",
"hX c #F4F4FB",
"jX c #FCFCFD",
/* pixels */
"2 6 0 r r 0 r 0 r p h t r 0 0 1 < ,   , 0 y * @ & D D ; S D D D D D D * @ & S ; + 1 0 i r 9 0 r 0 0 5 r t j h g r 0 0 d h h r 7 ",
"< < 0 t r 2 2 r g h h 0 2 , , 2 2 < , O y D Z @ S L G $ C L H * % S L S @ C H H * + y t 0 2 r r 0 2 5 r h h d p t 6 6 0 d q 6 6 ",
"2 2 0 0 0 6 0 0 r t 0 1   1 0 6 1 , , - S D S Z S S S Z S S S Z C S G S S S F F S $ * 8 9 0 r r 0 0 r h l l j h h t 0 0 0 0 6 6 ",
"0 h t < 6 h g 2 1 2 ,   , 0 h 0 < , , + @ $ G K S $ S L H V $ K L Z # S L F * * H G * 4 r r 5 < 2 t l l h l l l l h t r 1 r t 7 ",
"2 r 6 , < r 0 1 <   , < 6 0 r r 0 2 < + $ C S G S * S G F C C S G S C S H F Z S H G D y 0 r 0 5 0 r t r r r r r r r r 2 , 6 t r ",
", < , , < < , ,     < r t r 2 t q 8 4 + F K S * S L S $ C K K $ # F L S $ Z K G $ * G P y 5 r t r 2 < 2 2 2 1 < < 2 2 ,     1 0 ",
"2 1 < , , 2 < , , 1 6 r t e 6 0 q - - ; H H S $ Z K S $ C K G C $ G K S $ Z H H $ C G J $ O 7 r 0 <     , 2 2 < , < 2 2 ,   , 2 ",
"0 r 6 , 2 e r 2 2 0 r 0 2 6 t r 7 % G H S $ F H S * S K G * * G K Z $ S K F * Z H G S # @ 3 2 2 2 2 < , < r r 2 < 6 r 6 , , , 1 ",
"r r 0 6 r t t 9 , r t 0 2 0 t t 5 & G K C $ F K S $ Z K G $ $ H L Z # S K G $ C K H C # @ o < , , < < 2 2 t r 6 2 g h t 6 < < 6 ",
"0 0 6 r h h t 2 , 1 9 r r r 6 0 r & $ Z F H S C S G S C Z G G Z C S H S * Z G F Z C F G * o , , , , 2 r t 6 6 0 t h h h t t t r ",
"0 6 0 t l l t 6 1 , < 0 t r 2 0 t & @ $ H K S $ S L G $ C K L C # G L G # C L G $ C H K ; 4 < , , < 0 t g 2 6 r h h h l h l h d ",
"0 0 h h l h h t 0 1 , < 0 r 0 d p - Z G S C S F S A S S S Z Z S G S Z Z G S Z Z S S S C & 8 9 < 6 0 w r 7 r 0 h l l h l l l l w ",
"0 t h h h h h j d 6 , , 2 w h h h * K L C $ G L S # Z L H # $ K L Z # Z U G $ C K K C . # y 0 2 6 t t 6 2 t h h l l j j j l l w ",
"0 r d h h h l l h 0 < < 0 t h h j ; S F Z Z S S S S S S S Z S S G Z Z S G S S Z S S Z C X : 9 2 2 0 r 0 6 r r h h j j h h l h t ",
"0 2 7 h l h h l p 0 2 0 t h h h j y + $ J K Z $ S L G # * L U $ @ G L G # Z L K $ $ H K A = < , , < 2 t t 2 6 r h l h t j j h d ",
"7 6 0 r t h l l h 2 , 0 l l h l h t : @ S H Z C S G S C Z H H C C S K S C Z H S C C D u 8 2 ,   , 6 6 0 r 2 0 h j h h h h h w 1 ",
"t t 0 6 0 t h l h 2 2 r l l g h h r y + @ * G L S $ S K H $ * H U C # S U F # C K K : 5 r h 0 , 2 t r 6 2 t h h h j h h h t 0 , ",
"w r r 0 0 r g l t 9 < 6 t h h h t 0 2 o = $ Z H F $ S H H * $ G U C # S K F C C J P 8 2 r g 0 < 6 t r 0 2 e r h h h h g p 0 , , ",
", 6 c k c g g v v d e s e t j p 0 < , , 8 = X * F H F $ C H H C # F K S C C H F S Y h r 6 2 , , 2 0 c k k d f v N N v c g 6   2 ",
"  f K.8.8.8.9.9.A.8.8.F.X.d t 0 < , 2 2 < O . $ S K F $ C K H * # F U F # C K S V Y M l c e < , , s A.A.q.C.C.C.A.8.8.8.Z...< 9 ",
"0 [ |.I._..XoXoXXXoXXX_._.5.d 9 2 2 r r 4 O V G F C S G F C C F H S C S G F C V . P *.0.G.q.v 6 9 c ].oXoXoXXXoXXX_.J.J._.].t 0 ",
",.J.|.].oX0XqXqXqXtXqX%XXX'.<. .X.d r r 5 : H H C $ C K H * $ J U C # S K F # % * u &.F._.].F...X.G.@X0XqXqXqXtXqX%X}.|.].'.[ 9 ",
"I.|.XX@X0X0XqXqXqXdXfXsXrX6XXX|.(.<.d 9 e z Y Z @ . # C S D F F Z F F S C # . u Q &.<.V.K.|.|.XX@X#X8X0XqXqXqXdXfXdXrX5X]._.J. .",
"I.].+X0XqXqXqXqXtXfXhXjXjXdXqX#X].].X.b ..0.Q * # * % @ C K K $ @ F U F C # # T 0.K.C.V.J.].@X9X9XqXqXqXqXqXtXfXjXjXhXeX}.'.].].",
").@X0X9XqXqXqXqXqXyXfXhXjXfXtX8XXX(.F.V._._.&.z R Q I % . C C . . V F Y Q R R O.I.].I.H.F.G.+XqXqXqXqXqXqX0XtXyXfXjXjXdX8X].J.J.",
"|.0XqXqXqXqXqXqXqXqXtXfXjXdXtX#X|.J.V.V.I._.A.1.S.L.O.> @ # $ # # . * Q L.G.5.8.(.'.].(.A.A..X9XqXqXqXqXqXqXqXqXtXfXjXsXqX].F.8.",
"(.#X0XqXqXtXtXqXqXqXtXeXrXwX#XXXK.F.8.8.A.H.H.H.(.].0.Q R R R R R R R 2._.|.J.G.J.J.J.J.F.F.(.].#XqXtXqXqXqXtXqXqXdXfXeXoX(.G.A.",
"S.|.@X0XqXqXqXqXqXtXqX@X}.XX|.(.A.8.7.7.8.V.J._.`.].`.L.L.L.P.L.P.L.L.(._.|.P.P.A.8.8.8.J._.S.Z.].9XtXqXqXqXqXqXqXtXtXXXF.F.(.(.",
"5.J.|.#X0X%X8X8X8X8X%XXX_.].].I.8.4.4.7.4.8.F.K._.`.|.|.|.|.|.|.|.|.|.XXXX|.P.K.A.Z.A.A.J.K.F.A.(.XXoXoXoXoXoXoXoX@XXX(.A.A.'.].",
"V.Z.K.|.XX.X|.XX.X.X|.].].].].(.V.4.4.4.4.4.6.9.J.`.].].].'.].].'._.`.@X$XXXF.C.J.(._.K.A.8.G._.K.Z.A.C.V.V.9.Z.V.V.A.J.(.K.<.| ",
"..Z.V.K._._.'.].].].].].]._._.J.V.7.8.V.V.V.7.8.G._.].].].'.`.].|.|. X@X0X].V.C.`.XX]._.F.8.J.(.J.8.8.8.8.8.8.8.8.8.8.F.(.XXf 2 ",
"9 { V.V.G._.].].].].].].].(.A.8.4.8.J.(.U.J.9.7.F.]. X].].|.XX#X0XqX0X#XoXP.7.A.@X@XXX_.(.E.F.C.G.K.(.(.(.(.(.(.(.(.(.F.F.}.f 2 ",
", f H.4.Z.(.].].'.].'.'.].G.7.6.7.A._.].|.].J.Z.G._.].].]._.].8XqXqX0X@X_.G.V.P.$XqXoX|.].`.F.7.G.'.].].].].].].].].].F.S.N 9 6 ",
"2 n ).6.4.Z.A.A.A.A.A.F.A.8.7.8.G.(._.].@X#XOX|.P.A.Z.A.A.F.F.K.P.P.P.F.C.J.].@X8XqX#X@XXX]._.J.G.A.A.F.F.F.A.A.A.F.A.).3.0 0 0 ",
"t | ;X8.7.8.7.7.7.7.7.7.7.7.4.A.'.].].|.8XqXqX9X].V.4.8.5.4.4.4.4.7.8.4.7._.0XtXqXqXqX0XoX`.]._.J.7.7.7.8.8.8.7.4.4.8./.M 0 r 6 ",
"r Q >XT.Y.T.t.t.y.T.T.T.T.w.7.V.'..XOX#X0XqXtXqX@X]._.].J.V.4.4.8.J._.'.].+X0XtXdXdXtXqXoX].(.G.E.T.T.T.t.T.y.t.T.L.~.y.g 0 r 6 ",
"0 M 2X=X=X=X=X=X=X=X=X=X=X^.S.A.E.XX8XqXqXqXqXqXqX9XqXqXXXA.4.4.8.XXqXqX0X9XqXyXhXhXyX8XoX_.F.8.t.&X=X=X=X=X=X=X=X*X>Xu.l r 5 0 ",
"0 B pX,X2X2XuXuXuXuX2X2Xu.M k w.'.I.oX8XqXqXqXqXqXtXtXqX@XA.4.4.8.XXtXtXqXtXyXfXjXhXeXoX_.H.8.4.t.=X:X2XiX2X2X2XuXuXuXuX@.0 6 r ",
"r @.gXaXjXjXjXjXgXjXgXpX%.0 r #.I.V.(.XX8XqXqXqXqXqXqXtX+XA.4.4.9.XXqXqXqXyXhXjXjXfX6X_.F.8.7.8.T.=X2XaXjXjXgXjXhXjXgXjX=.q t h ",
"t @.gXhXjXjXjXjXjXhXgXuX;.t r r N 0._.(.XX8XqXqXqXqXqX0XXXA.4.4.8.].8XqXqXyXfXhXsXeX}.(.E.W.).W./.;X,XpXgXjXjXjXjXjXjXjX=.t g l ",
"h @.gXjXjXjXjXjXjXuX>X:X#.r 2 r t #.}.V.(.XX8XqXqXqX8XoX(.8.4.4.8.P.XX$XqXtXtXqX5X).H.E.!.3.e.-.=.e.,X>X2XhXjXjXjXjXjXjX-.h h j ",
"h @.pX1X3X3X3X4X4Xv.@.B h r < r l y.).A.G.(.XX@X%X@XXX_.G.A.8.A.A.G._.].@X@X@XXX_.H.8.J.y.m h h r t =.,X:X1X4X4X3X4X3XaX=.h h j ",
"t B -Xf.a.a.a.a.x.;.0 , 2 0 r g | ).(.G.A.Z.A.G.J.J.A.V.A.J.(.J.K.A.q.A.H.J.J.G.A.8.4.C.5.v r 2 0 r d e.-Xf.a.a.a.a.a.<X=.t p l ",
"0 B M.( ) ) ) ^ ` >.h o , 2 i N ,.A.`.].J.8.7.7.7.8.8.V.J.].XXXX|.J.8.8.V.8.4.7.8.8.V.8.V.[ 2 , 0 t r h z.p.^ ^ ) ) ) x.! 6 r h ",
"9 a k.g.l.k.d.' ` ' ~ 5 , < 2 | E.(.oX@X].H.8.7.8.G._.XX+X#X%X0X#X].J.J.K.F.7.8.J.J.K.J.F.[ 1 , 1 2 2 q i.] ' s.l.l.g.l.E 2 6 0 ",
", u k.b.B.N.b.l.s.) / %.$.&. .<._.oX9XqXoX_.F.8.F.'.@X9XqXqXqXqXqXOX].].`.J.8.A._.|.]._.F.q.c , , < < 8 ) d.k.c.m.B.n.c.T < , , ",
"6 a j.n.B.N.N.b.h._ / r.{.}.J._.oX9XdXsX@X_.S.8.(.@X0XqXqXqXqXqXqX8X@XXX].J.8.G.oX$X$XOX_.].0.< 2 6 7 y _ h.c.N.B.B.c.j.Y < o , ",
"q p ' N.B.B.B.B.c.d.( *.q.H._.oX0XtXhXgX5X_.F.8.'.0XqXqXqXqXqXqXqXqX0X@X].J.8.G.@XqXqX8XXX_.G.f 0 t t i ' c.B.N.m.N.c.c.E , , , ",
"6 0 t E s.` p.g.l.:.x m ..H.].oX0XtXfXdX9XoXJ.8.I.@X8XqXtXqXtXtXqX%X@XXX].J.7.A._.|.@XoX_.F.F. .r w r w ~ b.d.d.d.g.c.c.j 1 , 2 ",
", < 0 t 0 1 2 a ~ x l j l +.U.@X0XqXqXqXqX8X(.8.F.].@XqXqXqXqXqXqX+X].].].J.8.5.7.A.(._.F.V.H.[ r 2 2 r h p W _ ^ / ( ~ p 6 , 6 ",
", , 7 w r 2 6 r q r w r r t | XX#X#X#X@X+XXXE.Y.G.J.(.|.XXXX.XXX.X_.K.H.I.J.w.w.w.w.D.H.8.V.1.d 2   , 0 t 6 q a ! z t d t 0 2 2 ",
"  < < 1 0 g r 2 o < < 1 2 1 , X.XXXX.X].H.A.R./.T.8.8.V.V.V.V.Z.V.8.7.V.7.Y.!.&X*XQ.D.8.8.G.t 2 < , , 1 0 t t h h h h t 6 2 , , ",
", <     2 h r 2 , , , < 2 1 , , ...XU.J.q.w.&X>X;XY.S.q.0.E.}.[.[.D.q.q.w.Q.:X2X:X/.w.4.V.J.d 2 1 , , , , d h h h h h r 2 , ,   ",
"1 , , , , < 2 2   , , 0 r 6 ,   r Z.V.Z.y.&X7XaXfXiX>X/.;X>X;X!./.;X!.!./.>XgXpX>X!.S.7.o.} j d 0 , , 1 6 t h l h h h h h 6 1 , ",
"2 2 6 6 2 , , , , , 6 t g r 1 2 h v q.w.!.:XaXjXjXjXpX>XgX-.h l l r.uX*X*X>XsXiX:X/.E.<.e 6 r t r 2 < , 2 d h l h h j h t r 0 , ",
"6 0 t t 6 ,     , 0 t 0 0 0 t t l l y./.*X:XaXjXjXjXaX:XjX=.6 0 t ;.pXy.Y.Y.W.{.=X;Xu.l r t r 6 r r 0 1 2 t h l j h j t 6 0 d r ",
"r t l l 0 , , , < r t 0 < q h h l l #.*X*X=XuXhXhXhXuX:XaX;.0 r h e.uXt.8.4.4.w.!.>X;.2 r d 6 2 0 t 0 2 2 r h h l l h r 1 6 h t ",
"h h l l r 1 2 r r 0 6 0 t d h N v n m t.t.t.R.[.[.[.&X=X:X0.| ..&.&X:XR.6.o.o.8.w.R.2.s 9 t d r r 0 2 < 2 2 w g h l l r r 0 0 2 ",
"h h h l t 2 2 t g 6 2 0 h h c 1.<.+.<.4.7.7.7.7.7.9.T.*XQ.A.Z.Z.I.!.=XR.8.6.6.8.7.8.V.<. ...X. .r 2 , , < < 6 r h h l h h 0 6 , ",
"l h h l r < 1 6 0 0 6 6 0 r c V.H.J.(._.'._._._.).[.{.{.R.8.6.4.6.E.{.[.)._.'._._.(._.].(.F.8.V...6 0 2 , 6 6 0 r h h h t 6 0 0 ",
"h d h l r <   , 2 t d 6 d [ ..A.U.|.8X0X0X0X0X9XdXgXrX}.K.V.4.4.8.I.].+X0X0X0X0X0X0X0X8XXX(.V.V.F.b r 2 , t t 2 , q d r 2 0 r t ",
"g h l j r <   , , 6 0 9 { A.H.K._.XX@X8X8X8X0XtXyXfXeXXXJ.8.7.V.V.G.].%XqXtXtXqX8X8X8X@XXX].K.F.H.n 2 < , 0 r 0 0 r w 6 6 0 r 0 ",
"t j l h r 6 , , < , 2 r { K.U.].].].].|.|.XX%XqXtXtX0X|.(.A.4.X.4.I.].#XqXqXqX8XoX|.|.|.|.].'.'.H.s , , , < 6 r t 0 6 6 r 0 6 2 ",
"6 t j p r 0 6 < , < 1 9 { H.K._.(.(.(.(.U.(.|.oX+X+X.X'.G.b d 9 0 1._..X+X@X%X.X_.K.(.(.K.(.(.'.q.9 < < , , < r t 6 , 0 r 0 , 2 "
};
