/* XPM */
static char *result[] = {
/* columns rows colors chars-per-pixel */
"64 64 207 2 ",
"   c #3E3E3E",
".  c #6D3B19",
"X  c #713F1C",
"o  c #73411E",
"O  c #7A431E",
"+  c #4F463F",
"@  c #5B4738",
"#  c #6A452B",
"$  c #764421",
"%  c #794724",
"&  c #7B4926",
"*  c #72482A",
"=  c #7D4B29",
"-  c #6B4B35",
";  c #70503B",
":  c #444444",
">  c #4A4745",
",  c #46464A",
"<  c #4B4B4B",
"1  c #5A4C43",
"2  c #534E4A",
"3  c #5C5047",
"4  c #53514E",
"5  c #4D4D53",
"6  c #4F4F58",
"7  c #535353",
"8  c #5B5855",
"9  c #55555C",
"0  c #5B5B5B",
"q  c #67564A",
"w  c #715846",
"e  c #6C5E54",
"r  c #565662",
"t  c #5A5A62",
"y  c #575768",
"u  c #5C5C6B",
"i  c #646464",
"p  c #686666",
"a  c #63636C",
"s  c #696969",
"d  c #7D6D62",
"f  c #646472",
"g  c #65657B",
"h  c #696978",
"j  c #746E79",
"k  c #844C26",
"l  c #814E2B",
"z  c #82512E",
"x  c #88552F",
"c  c #855532",
"v  c #895633",
"b  c #8B5936",
"n  c #865839",
"m  c #8D5C39",
"M  c #915C35",
"N  c #905E3C",
"B  c #8D603F",
"V  c #93613E",
"C  c #8F6143",
"Z  c #966442",
"A  c #986643",
"S  c #9B6946",
"D  c #95674B",
"F  c #9D6C4B",
"G  c #896C59",
"H  c #986C52",
"J  c #A26E49",
"K  c #A5724E",
"L  c #A47453",
"P  c #A97653",
"I  c #AB7A58",
"U  c #B17E5B",
"Y  c #847369",
"T  c #8F757D",
"R  c #9A7C7B",
"E  c #A37D6F",
"W  c #B5825D",
"Q  c #BA865F",
"!  c #9D807E",
"~  c #AA846E",
"^  c #B78562",
"/  c #B98662",
"(  c #BC8A65",
")  c #BD8B69",
"_  c #BB957B",
"`  c #BD987F",
"'  c #C18E6A",
"]  c #C4926E",
"[  c #C49471",
"{  c #CB9975",
"}  c #CB9976",
"|  c #D19D7A",
" . c #D3A17D",
".. c #6B6C85",
"X. c #6D6D8B",
"o. c #737382",
"O. c #72728D",
"+. c #727293",
"@. c #7A7A95",
"#. c #7A7A9C",
"$. c #7B7BA1",
"%. c #8D7E8B",
"&. c #9E8487",
"*. c #9A8797",
"=. c #A38788",
"-. c #B59686",
";. c #BD9A81",
":. c #A48C93",
">. c #BFA490",
",. c #8886A6",
"<. c #8383AC",
"1. c #988CA6",
"2. c #8484B6",
"3. c #8987B5",
"4. c #8B8AB4",
"5. c #8585B9",
"6. c #8B8ABB",
"7. c #9091B4",
"8. c #9B97B4",
"9. c #9292BD",
"0. c #9A9ABD",
"q. c #A69CB6",
"w. c #BDABA0",
"e. c #A9A4B7",
"r. c #A3A4BE",
"t. c #B2ABB7",
"y. c #C5A58E",
"u. c #D6A582",
"i. c #D9A783",
"p. c #DDA986",
"a. c #DFAD8A",
"s. c #C1A694",
"d. c #CDAC95",
"f. c #E0AC87",
"g. c #E1AE8B",
"h. c #E3B08D",
"j. c #E8B58F",
"k. c #E6B592",
"l. c #E8B693",
"z. c #EBB996",
"x. c #EEBC99",
"c. c #F1BF9D",
"v. c #C7BBB4",
"b. c #C9BDB4",
"n. c #C5BDBA",
"m. c #F3C29E",
"M. c #C8C1BC",
"N. c #F6C4A1",
"B. c #F8C6A4",
"V. c #FBC9A6",
"C. c #FECCAA",
"Z. c #FFD1AE",
"A. c #FFD4B2",
"S. c #8D8DC2",
"D. c #9091C1",
"F. c #9393C4",
"G. c #9797C7",
"H. c #9A9BC2",
"J. c #9696CA",
"K. c #9A9ACD",
"L. c #9E9ED1",
"P. c #9FA1D5",
"I. c #A4A4C1",
"U. c #ACADC2",
"Y. c #A7A1C9",
"T. c #A8A4CE",
"R. c #AEB0C9",
"E. c #B1B1C4",
"W. c #BBBCC6",
"Q. c #B9BACA",
"!. c #A2A2D5",
"~. c #A8A6D6",
"^. c #A6A6DA",
"/. c #A6A8DA",
"(. c #AAAADD",
"). c #B5B6D0",
"_. c #ADADE1",
"`. c #B3B3E5",
"'. c #B7B7E9",
"]. c #B7B8E8",
"[. c #BBBBED",
"{. c #BFBEF1",
"}. c #C0BBC4",
"|. c #BFC0F1",
" X c #C3C4CC",
".X c #C9C7C9",
"XX c #CCCCCD",
"oX c #D1D1CF",
"OX c #CDCED4",
"+X c #CCCED9",
"@X c #CFD0D3",
"#X c #D1D1D1",
"$X c #DDDBD6",
"%X c #C6C7EE",
"&X c #C3C3F5",
"*X c #CECFF2",
"=X c #C7C7F9",
"-X c #C8C7F8",
";X c #CCCCFE",
":X c #CFD0F2",
">X c #D2D2FF",
",X c #E5E5E2",
"<X c #E9E7E5",
"1X c #E8E8E7",
"2X c #EAEAE9",
"3X c #F2EBE5",
"4X c #FEFEFE",
/* pixels */
"< 4 7 0 7 7 0 7 0 i i 0 7 7 9 > > :   : 4 - = c n n m C C n = n = n n * * * n z # + 7 0 9 4 7 0 7 7 7 7 0 i i i 0 7 7 0 i i 0 7 ",
", : < 0 7 < < 7 i i i 7 < : , < < : : 1 3 ; b V Z V Z Z A A B = & B V = O z V b & * q 0 < 7 7 0 7 < < 0 i i 0 i 0 < 7 7 i 7 < < ",
"< < 7 7 7 7 7 7 7 0 7 >   : 4 4 > : > # o & b A S A A A A S V v z v b v z v v x = x - 4 7 7 7 7 < 7 0 i s s i i i 0 7 7 7 7 7 < ",
"7 i 0 < < i i < < < ,   : 7 i 7 , : + # o & m A A A Z A A A A V N = & v V v & = M V * 2 7 0 7 : < 0 s s s s s s s i 0 7 < 7 0 7 ",
"< 0 7   , 0 7 < :     : < 7 9 0 7 2 ; o & z v m V A V b N Z V V v % o z N v = c B x = 3 7 9 7 < 7 0 0 0 7 0 0 0 0 0 7 < : 7 0 7 ",
": , : : , > : :     < 0 i 9 < 0 8 ; = & b N z = b Z b = c Z V z % % o o % z V b = o O - 4 4 7 0 0 < : < < < < : : < < :     < 7 ",
"> > :   , < > : : < 4 7 0 7 < 7 8 $ o z m m = $ z m z o = b b & o % = & & x B v % o & = + > 7 9 7 :   : : < < : : : < <       < ",
"7 0 7 : < 7 7 < < 7 0 7 < 7 0 7 4 * x b z = % % & = & $ $ = = o % v V V N v = & o = m v - > < < < < : : : 0 7 < : 7 0 7 : : : < ",
"7 0 7 7 7 0 0 < : 0 0 7 < 7 0 0 1 m F A = o o o $ $ O $ $ o $ o % b V Z V b & % o & b m - : : , : : : < < 0 0 < < 0 i 7 7 : < < ",
"7 4 4 7 i i 0 < : < 7 7 0 7 7 7 e ' [ W z . . o X $ $ $ $ $ $ $ $ & = z = v m z o % = z @ +   : : : < 0 0 4 < 7 0 i i i 0 0 0 0 ",
"7 4 7 i s s 0 7 :   < 7 0 0 < 7 d f.j.{ V & = & % $ $ $ $ $ $ $ $ $ % o % z V b = & O O @ > , : : < 7 0 0 4 < 0 s s i s i s s 0 ",
"7 9 0 i s s i 0 7 <   < 7 7 7 0 Y z.V.l.[ W W L b X X $ o X X X o $ $ o o % z m S V = o # 7 < > < 7 0 7 7 7 0 i s s i s s s s 0 ",
"7 0 s i i i s s 0 7 : : < 0 0 i Y l.V.m.g.u.p. .L & o $ $ $ $ $ $ $ $ $ $ $ o m W L x o # 8 7 < 7 0 0 4 < 0 0 i s s i s i s i 7 ",
"7 7 0 i i i i s i 7 : : 7 0 i s Y i.{ Q W ^ u.l.| U N $ l F K K F = o = z c x m V V b k * 3 < , < 7 7 7 7 7 0 i i i s i s s i 0 ",
"7 < 7 i s i i s i 7 < 7 0 i i i Y [ V o # v } B.C.z.W & N [ u.i.{ V o z Z A A b & = N V = + : : : , < 0 0 < 4 7 i s i i s i s 0 ",
"7 4 7 7 0 i s s i < : 7 s s i s d ( K Z Z P p.C.A.C. .P ^ g.l.l. .V o = B m m b b b V H d 2 : + : < 7 7 0 < 7 i s i i 0 i i 0 < ",
"0 0 7 7 7 0 i s i < , 0 i s i i e W  .m.m.m.m.V.C.C.m.z.x.B.c.l.} m . o & $ $ m P I J q 0 i 7 : 4 0 9 4 < 0 0 i s i s i i 0 7 : ",
"0 7 7 7 7 7 i s 0 < < < 0 i i i 8 W m.V.B.V.V.V.C.C.C.A.A.C.B.x.u.P c & $ & v V P ) G 4 7 i 7 : 4 0 0 < < 0 0 i i s i i 0 7 : : ",
": < 7 0 0 7 7 0 i 7 : : < 0 s i 3 W p.m.j.j.m.Z.C.C.C.C.C.C.C.B.x.u.( V $ A ) U V G i 7 4 < : : < 7 7 0 0 < 7 i s i i 7 7 : : : ",
"  : 7 0 7 , < 7 0 7 ,   : < 0 7 + w _ { {  .m.m.V.C.C.C.C.C.C.C.V.N.f.K $ F [ W V e s i 7 , : , : : : 7 0 < < 0 i i 0 7 :     7 ",
"< : < 7 ,   : < 7 7 7 4 : : < : : > e Z J W  .k.B.V.C.C.C.C.C.C.C.C.x.I $ l Z V B d p i 0 0 7 , : : : < < : : : : , < < :   : 7 ",
"7 < < < , : : , < 0 0 7 < < < < : < 0 q V I )  .z.B.V.V.V.V.V.V.B.V.x.U & o $ c H Y s s i 0 7 : : < : : : : : : : : : : , : : < ",
"< : : 0 7 : : 7 7 7 7 7 7 0 7 0 7 < 7 j *.:.~ (  .k.x.z.z.z.z.z.l.h. .P v k c H &.q.,.0 0 7 : : : : , : : 7 0 0 0 < : < 7 7 , < ",
": : 7 0 0 < < 0 0 7 < 7 i s s i i 0 0 4.L.I.! L ( u.p.u.u.u.u.i.u.] ^ L D Z D R r./.4.o.X.r < : : : : < < 0 i s i < : 7 i 7 < < ",
"< 7 0 < 7 0 0 < < < 0 i s i i i i i f P._.~.1.T E Q Q W / Q / / W P K E *.&.T *.T.P.D.6.S.<.u :   : < < 0 i s i i i 0 7 7 7 7 < ",
"7 i 0 < < i 0 < < 7 i i s s 0 s a @.,./.(.!.9.,.R F F F F F F F F A F :.Y.H.3.D.P.P.D.6.5.F.3.g : : 7 0 i i s i i i 0 7 : 7 0 0 ",
"7 0 0 7 7 0 7 < 7 i i i i i s t g P.P.K.K.K.K.G.1.&.R ! ! ! R &.! ! &.q._.P.J.J.K.P.P.P./.L.F.D.a : 7 i s s i i i 0 7 7 < 7 7 7 ",
"7 < 7 0 0 < < 7 i i s i t i a a ,./.F.6.6.S.K.~.T.Y.Y.Y.Y.Y.Y.Y.Y.Y.Y.T./.(.^.L.9.K.].=X=X[.L.S.<.5 < i s i i i i 7 < 0 i 0 < < ",
"< : < 7 0 < < 7 0 i i i i s #.P.P.P.K.K.K.K.K.!.!.!.(._._._._._._._._._.(.^.L.J.6.J.|.>X>X;X/.D.6.g u 7 0 i i 0 0 < < 7 0 7 : : ",
": : : < 7 0 0 7 7 0 i i s a +.S.S.K.'.&X&X[.P.9.6.9.K.(._._.(._.(._.(.(.(.L.S.6.5.P.|.>X>X|._.P.6.9 6 < < i i 7 < 0 i 0 < : : , ",
": : : : < 0 0 < : 7 0 i 0 i O.6.6.P.|.>X>X=XP.5.2.5.F.!.!.!.!.!.!.^.!.!.!.J.6.2.5.J.].|.;X|.|.|.6.: : : < 7 0 < < 7 0 0 : : : < ",
": < : : : < : : : : < 7 7 9 X.J.P.(.&X>X;X&XL.3.5.5.5.6.S.S.S.S.S.S.S.S.6.5.5.5.5.S.D.P.|.>X;X|.F.: : : < < < : : : < : : : : < ",
": : < : : :   : : :   :   6 X.K.(.'.=X;X>X&XP.5.6.6.6.3.3.6.4.6.6.6.6.4.6.6.6.6.3.3.3.G.].;X;X>XG.< , : : , :     : <     : < 4 ",
"< < < :     : :   : :   : 6 X.J./.'.&X;X>X&XL.6.0.E.E.E.E.U.E.U.U.U.U.E.E.E.E.r.6.9.I.).%X=X{.{.9.9 5 >     :   : 4 0 < : < 7 7 ",
"0 0 7 7 : : : > : , : , < t O.J.^.'.=X>X;X|.L.6.E..XoX@XXXoXXXoXoXoXXXoX#X#XXXE.9.0.W.+X:X=X'._.6.0 9 < , : : , < 0 0 0 , 7 7 7 ",
"0 7 7 7 7 7 7 0 4 , : < 7 t X.K./.`.&X;X>X&XL.9.U.XX$X,X<X<X<X,X<X<X<X<X1X$XoXE.9.0.W.+X:X=X'._.9.r 0 7 4 < > < 7 7 7 7 4 7 7 7 ",
"4 < 7 0 i i i i 0 < < 7 8 t X.G.^.'.=X;X>X|.P.6.r.XX,X4X4X4X4X4X4X4X4X4X4X1XoXE.9.0.W.OX:X=X]._.9.y r 9 8 < , 7 0 7 < 7 0 7 7 4 ",
"7 7 0 i s s i 0 9 7 7 7 9 9 X.G./.'.=X;X;X&XL.9.E.XX,X4X4X4X4X4X4X4X4X4X4X1XoXE.9.0.W.OX*X=X]._.9.y 9 8 0 < , 7 0 7 < 0 0 7 7 7 ",
"9 0 i i s s i < < 0 0 7 , r O.J.!.'.=X;X;X&XL.9.U.XX,X4X4X4X4X4X4X4X4X4X4X2XXXE.9.9.Q.OX*X-X'._.9.u u 7 , +     : 0 0 7 , 5 0 i ",
"0 s s s s s 0 7 7 7 0 7 7 t X.K./.'.=X;X;X|.L.9.I.XX,X3X4X4X4X4X4X4X4X4X4X1XoXE.9.0.W.OX*X-X'._.D.y 0 5 < : , < 7 7 7 9 7 0 0 s ",
"i i s s s i i i 0 7 < 7 0 t X.J./.].&X>X;X&XL.6.I.XX,X4X4X4X4X4X4X4X4X4X4X2XXXE.9.0.W.OX*X=X'._.9.r 7 7 0 < < 7 0 < < 7 0 i i s ",
"i i s i i 0 0 i 0 > : 7 0 t X.J.!.'.=X;X;X&XL.9.U..X,X4X4X4X4X4X4X4X4X4X4X2X#XU.9.0.Q.OX:X=X'._.9.y 9 0 0 < < 7 0 7 < < 0 i i s ",
"0 i i s 0 7 4 < < , : , < 9 ..L.(.'.=X>X;X|.L.6.U.OX,X4X4X4X4X4X4X4X4X4X4X2XOXU.9.G.W.OX*X=X'._.F.g f 7 < : : : 7 0 7 7 7 7 0 s ",
"4 7 0 i 7 < : : : > : : : 7 i O.!.`.[.;X;X&XL.9.e.n.$X3X3X3X3X3X3X3X3X3X3X$XM.t.7.8.W.OX:X=X`.!.F.+.h :   : :   < 7 0 7 : < 0 i ",
"< < < 7 < : < 7 7 < :   : < 7 < X._._.{.;X&XL.4.:.-.s.d.d.d.d.d.d.d.d.d.d.y.;.-.=.>.v.+X*X&X^.F.S.+...  : : < : : < < : : : < 7 ",
": : <     < 7 0 0 7 > , : , : , , $._._.&X|.!.4.&.) ) ) ) ) ) ) ) ' ) ) ) ' ' ( / ` v.+X*X&XL.S.$.y r : : < < : : : : : : : : : ",
"< 7 7 : < 7 0 7 7 7 9 0 0 0 9 2 , 5 %._.|.&X!.4.&.) { p.h.h.h.a.g.h.h.g.g.g.g. .' ;.v.+X:X&X!.6.a 7 5 : : 7 7 < : < 7 < : : : : ",
"0 i 7 7 7 i 0 7 7 8 i i p p a 9 5   9 6.=X&XL.4.=.)  .B.C.V.V.C.C.B.V.V.C.C.B.h.' ;.v.+X*X&X!.<.a 0 0 4 < 7 0 < : 7 i 7 < :   < ",
"< 7 7 7 7 0 7 7 0 i s s s s s 0 < : : a 0./.J.3.&.) p.V.B.a.k.V.C.l.a.m.C.m.g.| ) ` v.+X*X&X^.#.9 0 0 7 7 7 0 7 7 i s 0 7 : : < ",
": < 7 0 7 < < 0 i s s i i i s 0 <   : < 9 3.S.4.&.) p.B.k.] { m.V.| ( h.C.h.] / / ` v.+X*X|._.X.7 < < 0 i < 7 7 i i i i i 7 < < ",
"  : 7 0 7 < 7 0 0 0 0 0 0 7 0 7 :   : < 0 <.F.8.-.) | a. .Q ' f.h.' W  .h.| / U W ;.v.+X*X=X_.g <     7 0 7 7 0 s s 0 i 0 7 < < ",
"  : : < 7 0 0 < : : : < < < : < : : , < y 9.R.n.>.) ( ) ) Q Q ' ' ( Q ) ' ) / W ^ ;.v.+X;X&X!.g , : : , 4 0 0 i s i i 0 < < : : ",
": <     < i 0 : :   : < < :   < < < < < r 3.U.W.w.;._ _ _ ` ` _ _ ` ` ` _ _ _ ` ` s.M.#X*X%XH.t < : : : : 0 i i 0 i i 0 < : : : ",
"< : : : : : < <     : 7 7 7 :   0 s 0 0 < 6 f 8.t.t.v.v.v.M.M.M.b.v.v.v.v.v.v.v.v.M.XXXX#X+X7.0 7 : : : < i i s i i i i i < < : ",
"< < < 7 < : : < < : < 0 i 0 < < i i i 0 7 < > ..Q.XX#X@XXX X X X XXX@XoX@X@XXXOXOXXX.X}. X X,.t 9 < : : < 0 s s i s s i 0 7 7 : ",
"< 7 0 0 7       : 7 0 7 7 7 0 0 s s i i i 0 9 +.E.@X#X#XW.I.H.H.I. XoXoXoX#X#XoXoX XU.0.0.I.<.9 7 0 7 < < 0 s s s i i 0 7 7 i 7 ",
"7 i s i 7 : : : < 0 0 4 : 7 s i s s s s i 0 t #.U. XXX.X~.S.%.2.6.E.XX.X.X X.X.X.XE.9.5.5.6.S.y 7 0 7 < < 0 i i s s i 0 < < i 0 ",
"i i s s 0 : < 0 7 7 7 7 0 0 i s i p i i s i r +.H.I.I.I.9.5.5.2.5.0.U.I.I.I.I.I.r.0.3.2.5.5.S.$.0 7 < : < < 7 i i s s 0 7 7 7 4 ",
"i i s s 0 < < 0 0 7 < 7 i s i s i i i i s 0 9 X.6.6.5.6.6.6.6.6.6.5.5.5.6.5.5.5.6.6.5.6.5.6.6.F.O.< : : : : 7 7 0 s s 0 i 7 7 : ",
"s i i i 0 : : 7 7 7 7 < 7 0 i i i s s i i i 7 X.L.P./.^./././././.D.5.2.5.S.F.K.!./././.(.!.L.L.3.6 7 < : 7 7 7 0 i i i 0 < 7 7 ",
"i 0 i s 0 :   : < 0 0 5 : 7 i i i s h O.O.X...<.(.|.;X=X=X=X=X;X|.K.2.2.5.F.!.`.|.&X=X=X;X|.`.(.9.g u < : 0 0 < : 7 0 0 < 7 0 0 ",
"i i s s 0 :   : : 7 7 7 7 4 7 0 i s j 6.F.F.F.G.(.|.|.|.|.{.&X&X[.G.5.2.6.K./.`.|.%X|.&X|.|.`._.G.<.+.: : 7 7 7 7 0 0 < 7 7 7 7 ",
"0 i s i 7 < : : : : 4 7 0 0 4 7 0 s j S.!.^.^.^./.`._._.(.`.`.`.(.F.5.2.6.G./._._._._.`.`.(._.(.J.6.$.  : < < 0 0 7 < 7 0 7 < < ",
"< i i i 0 0 < , , : , 4 7 7 7 5 0 0 h 6.K.!.!.!.!.P.P.P.!.P.P.P.L.F.S.5.6.G.P.!.P.!.P.P.P.P.P.P.G.6.#.: :   < 0 0 <   7 0 7 : < "
};
