/* XPM */
static char *result[] = {
/* columns rows colors chars-per-pixel */
"64 64 226 2 ",
"   c #3E3E3E",
".  c #6F3D1A",
"X  c #723C17",
"o  c #713E1A",
"O  c #74411E",
"+  c #7A431D",
"@  c #57463B",
"#  c #66432C",
"$  c #754421",
"%  c #794623",
"&  c #7C4926",
"*  c #71472A",
"=  c #73492B",
"-  c #7E4C2A",
";  c #6D4B34",
":  c #7B5438",
">  c #444444",
",  c #494847",
"<  c #4B4B4B",
"1  c #544D49",
"2  c #56514D",
"3  c #4E4F54",
"4  c #535353",
"5  c #5B5553",
"6  c #5D5B57",
"7  c #56565C",
"8  c #5B5B5B",
"9  c #6C5646",
"0  c #775B47",
"q  c #645C58",
"w  c #64615E",
"e  c #756357",
"r  c #545361",
"t  c #5D5D63",
"y  c #5D5D6B",
"u  c #5E5E70",
"i  c #646464",
"p  c #6A6765",
"a  c #64646C",
"s  c #6A696A",
"d  c #7B6E65",
"f  c #756C68",
"g  c #7C716A",
"h  c #646474",
"j  c #6C6B74",
"k  c #66667C",
"l  c #6C6C7B",
"z  c #706F71",
"x  c #757478",
"c  c #7C7C7C",
"v  c #824C26",
"b  c #804E2B",
"n  c #83512E",
"m  c #845433",
"M  c #895634",
"N  c #8B5936",
"B  c #83593C",
"V  c #8D5C39",
"C  c #915E3B",
"Z  c #93613E",
"A  c #875D42",
"S  c #966441",
"D  c #996644",
"F  c #9C6945",
"G  c #9C6C4C",
"H  c #936E56",
"J  c #A16F4C",
"K  c #A5724E",
"L  c #A9754E",
"P  c #A67755",
"I  c #AB7955",
"U  c #AD7C59",
"Y  c #B17D5A",
"T  c #937969",
"R  c #8A7977",
"E  c #9B7F7B",
"W  c #A27D64",
"Q  c #B4825D",
"!  c #B9865F",
"~  c #978179",
"^  c #AA8369",
"/  c #B58461",
"(  c #B88662",
")  c #B98A67",
"_  c #BD8C6A",
"`  c #AC8D76",
"'  c #B58D72",
"]  c #BD9375",
"[  c #C18E6A",
"{  c #C4916E",
"}  c #C59472",
"|  c #C79776",
" . c #CB9976",
".. c #CE9D7A",
"X. c #D4A27E",
"o. c #DBA37D",
"O. c #6B6B83",
"+. c #6E6E88",
"@. c #777789",
"#. c #757594",
"$. c #7A7A9D",
"%. c #7B7BA4",
"&. c #7F7FB5",
"*. c #927D81",
"=. c #817F98",
"-. c #858485",
";. c #89888B",
":. c #9C8686",
">. c #888798",
",. c #958699",
"<. c #969698",
"1. c #AC958D",
"2. c #8584A4",
"3. c #8383A9",
"4. c #998EA6",
"5. c #9898A5",
"6. c #8485B6",
"7. c #8B8AB5",
"8. c #8686B9",
"9. c #8788B9",
"0. c #8B8BBC",
"q. c #908FB9",
"w. c #9392B6",
"e. c #9292BD",
"r. c #9C9CBE",
"t. c #A398B3",
"y. c #A8A8AA",
"u. c #B8ACA3",
"i. c #A6A6BC",
"p. c #B5B6BA",
"a. c #C59D81",
"s. c #C8A389",
"d. c #D5A481",
"f. c #D8A683",
"g. c #DBA985",
"h. c #D5A989",
"j. c #DEAC89",
"k. c #C8AC98",
"l. c #CFB39F",
"z. c #E4AE87",
"x. c #E3B18E",
"c. c #E5B592",
"v. c #EAB795",
"b. c #EBB996",
"n. c #EDBC99",
"m. c #F3BE9A",
"M. c #CEB8A9",
"N. c #F3C19E",
"B. c #C3C3BF",
"V. c #D5C7BC",
"C. c #E9C7AD",
"Z. c #F6C5A2",
"A. c #F8C6A4",
"S. c #FBC9A6",
"D. c #FECDAA",
"F. c #FFD1AE",
"G. c #FFD4B1",
"H. c #8E8EC1",
"J. c #908FC1",
"K. c #8F90C2",
"L. c #9293C4",
"P. c #9A9AC5",
"I. c #9696C9",
"U. c #9897CA",
"Y. c #9798CB",
"T. c #9B9ACC",
"R. c #9E9ED1",
"E. c #A3A2C4",
"W. c #A8A8C3",
"Q. c #ADACC3",
"!. c #A5A2CA",
"~. c #B0AFC4",
"^. c #B2B1C3",
"/. c #BABAC6",
"(. c #B1B1CC",
"). c #BEBECC",
"_. c #A0A0D1",
"`. c #A3A3D4",
"'. c #A8A6D6",
"]. c #ABABD3",
"[. c #A6A6D9",
"{. c #A8A7D9",
"}. c #ABAADC",
"|. c #B5B4D4",
" X c #B7B7D7",
".X c #AEAEE1",
"XX c #B0AFE1",
"oX c #B2B2E4",
"OX c #BBBBE6",
"+X c #B6B6E9",
"@X c #BBBBED",
"#X c #BDBEF0",
"$X c #C0BFF2",
"%X c #BFC0DE",
"&X c #C5C3C4",
"*X c #C3C3CB",
"=X c #CCCDCD",
"-X c #D3D1CD",
";X c #C7C6D6",
":X c #D3D4D4",
">X c #D7D8DA",
",X c #DCDDDB",
"<X c #E7D7CB",
"1X c #E9DBD0",
"2X c #DFE0DD",
"3X c #C9C9E9",
"4X c #D8D9E3",
"5X c #C3C3F5",
"6X c #C9C9F7",
"7X c #C6C6F9",
"8X c #CCCCFD",
"9X c #D0CFFE",
"0X c #CFD1FF",
"qX c #D2D2FF",
"wX c #DDDCFA",
"eX c #E3E4E4",
"rX c #E7E7E7",
"tX c #EBECEC",
"yX c #E9E9F5",
"uX c #E3E3FD",
"iX c #EDEDFC",
"pX c #F4F4F4",
"aX c #F9F8F7",
"sX c #F0F1F8",
"dX c #F5F5FA",
"fX c #FDFDFD",
/* pixels */
"< < 4 8 6 4 4 4 7 t t 8 4 4 8 , , >   , 4 4 ; M B B V S S B m m B m B - $ = B - % : q t 7 2 4 4 4 4 1 8 8 i i i 6 4 4 t i t 6 4 ",
", , 3 8 4 < < 6 i i i 6 , > > < < >   < 4 ; M Z Z Z S S S S V - $ M Z m $ - V V & $ m 9 < 3 4 8 7 < < 8 i i t t 8 4 < 4 w 4 < 4 ",
"< < 4 4 4 4 4 4 6 8 4 ,   > 4 3 , >   @ * & N D D D D D D F Z M n M M M m m m M n v X 0 5 4 4 4 3 4 8 i z s i i t 8 4 4 4 4 < 4 ",
"4 i 8 , 3 w w < , < >   > 4 i 4 <   > # + % N S D D D F D F Z S Z n % m C M & b C C v 0 6 8 3 , < 8 s i i s s i p i 8 8 < 4 6 4 ",
"< 8 3 > , 8 7 < > > > , < 4 8 8 3 < , # & n M V Z S Z V V S S Z M & $ b V M b n N N & A q 7 2 < 4 8 8 8 4 8 7 6 8 8 4 < > 4 4 4 ",
"> > > > > , >       > 4 t 8 , 8 7 1 1 # N C n - N S N & n S Z - $ $ $ $ & m C V b $ o b : 1 8 8 4 3 , , < , < > > < < >     < 4 ",
", , >   > < , > > < 4 4 8 4 < 4 6 ; ; - V V - $ - N m - - V V N m & $ O O b C M & $ v % X : q 5 4 ,   > > < < > > > < < >   > < ",
"4 8 4 > < 7 4 < < 4 8 4 < 4 8 4 2 % N C n v $ O $ % n V N % n ! _ C o o O % & % $ & N N % A q , < < ,   > 8 6 < > 4 4 4 > > > < ",
"6 8 4 4 4 8 i < > 4 8 4 < 4 8 8 2 = V V - $ % - - n N Z V - Z ..j.I b % $ $ % % $ b N V v A 1 > > > < < < 8 8 < < t i 8 < > < < ",
"4 4 < 4 i i 6 < > < 4 4 8 4 4 4 4 * - - $ $ V J U Q G n N I _ X.j. .Q Z O & M n % O - - o B , > >   < 6 8 < 4 4 6 i i i 8 8 8 8 ",
"4 < 4 i s i 8 4 , > < 4 8 4 < 4 q = $ $ $ n J ) X.f.Q n S ..c.j.j.x.g.U b n C V b % $ O X 0 < > > < 4 8 i < < 8 s i i s i s i 8 ",
"4 8 8 i s s i 8 4 > > > 4 8 4 8 w = o % V J (  .g.x...( { c.N.N.n.b.x. ./ F M M S C b o X A 5 , < 4 8 4 4 4 4 i s s i s s s s 8 ",
"4 8 i s i i i i 8 4 > > < 8 t i i = o b K )  .f.g.g.f.f.x.Z.D.D.S.v.g.g.f.U b N I I M O o A q 2 4 8 8 < < 8 t i s s i s i s s 8 ",
"4 4 8 i i i s s i 4 > > 4 t i i p = & C Q ..x.c. .Q P I } N.F.F.Z. .L P U P J U { _ F - X A q < < 4 4 4 < 8 8 i i s i i s i i 8 ",
"4 < < i i i i s i 4 < 4 8 i i i i = M K _ j.N.N._ n . O K c.G.G.N.U $ O % G  .g.g. .I V v 1 , > > < 4 8 8 < < 8 i s i 8 i i i 8 ",
"4 < 4 8 6 i s s i < > 4 s s i s z ^ J K _ f.n.Z...K Z S ( n.F.F.Z._ S V C U f.x.d.} K G H 3 >   > < < 4 6 < 4 i i i i i i i 8 < ",
"8 t l u h j O.@.l a y k @.s i i ;.1.e A Q { x.S.Z.b.v.v.n.S.D.D.S.m.c.f. .X.d.d.{ Q G W f i 4 > < 8 j u y h l l x l l @.s 8 3 > ",
"8 a R.9.e.K.K.K.L.I.H.0.T.=.i i 6 2 < 9 J ! f.N.D.G.G.G.F.D.D.D.D.G.F.Z.x.j.j. .Q W ^ H 8 t 4 < 4 t K.Y.e.K.K.L.K.0.0.K.3.t > > ",
"< +..XR.[.+X#X#X#X#X@X}.}.w.j i 8 > > @ A L | x.N.D.F.F.D.D.D.S.D.D.D.n.j.j.j. .I ^ g 6 4 3 < > 3 j .X#X@X#X@X#X#X}.`.`.[.Y.7 < ",
"%.[.oXoX#X0XwX0X8X9X8X$XoX[.6.$.%.O.r 4 0 F ) X.c.Z.S.S.D.D.D.D.D.S.A.v.j.d.d.[ G T z j @.#.#.%.3.`.#X8X0X0X0X0X8XOX}.}.}.}.3.t ",
"`..X%XwXsXsXiXqX8X8X8X7X5X@X@X+X.XI.=.+.H Z Q } d.c.N.S.D.D.D.D.D.m.c.x.z.d.} Q K H i <.3X[..X#X5X5X5X8X8X8X8X0X6X@X}.].[.`.[.Y.",
"!.oX6XdXdXdXsXqX8X8X8X8X8X8X8X5X.X`.I.=.R J P ! { X.x.N.A.S.S.S.A.c.d.X.X.} ( U P ~ x i.3X.X#X8X8X8X8X8X8X8X8X8X8X@X.X.X.X.X}.[.",
"!.#XwXfXfXiXwX0X8X8X8X8X8X8XqX5X.XR.H.6.4.1.^ K P Q { ..j.v.b.n.v.d.} ) Q I L W :.t.i.).|..X5X8X0X8X8X8X8X8X8X8X7X5X@X#X#X.XT.K.",
"R.5XuXdXiX0X8X0X8X8X8X8X8X8X8X@XoXR.H.H.R.E.:.H D G P / { X.g.g.X.} ( P H F F E t.`.T.L.T.{.@X5X8X8X8X8X8X8X8X8X8X8X8X8X7X.XY.0.",
"Y.}.3XuXuX0X8X8X8X8X8XqX8X@X}.`.R.I.I.R.[.'.4.R *.:.E K L Y ( ! ! I L W :.*.*.,.!.[.H.6.K.T.`.[.+X8X0X8X8X8X8X8X8X0X0X#X}.`.T.T.",
"q.K.[.5XqX8X8X7X8X8X8XqX8X.XL.9.H.H.R.[.{.[.L.7.P.!.1.H D J J G G F G :.!.U.7.J.`.`.K.8.9.0.0.H.}.7X8X8X8X8X8X8X7X8X6X.XK.L.[.T.",
"K.L.R.}..X.X.X.X.XoX.X.XXX`.I.L.I.U.T.R.T.T.I.I.[.{.E.*.E *.E *.E E :.t..X[.T.U.T.Y.H.0.H.I.I.L.`.}.oXoX.X.X.X.X.X.X.X`.I.I.T.l ",
"R.`.R.K.0.K.K.H.H.H.K.0.0.T.`.{.[.R.J.8.0.H.T.'.{.{.'.'.!.!.!.!.!.!.!.'.{.}.{.R.K.0.8.0.T.[.[.'.T.K.0.K.0.K.H.H.K.0.K.T.`.`.K.4 ",
"2..XI.L.K.K.K.K.L.0.H.H.K.I.R.`.`.T.L.L.H.L.T.`..XoXoX.X.X.X.X.X.X.X.X.X{.{.`.I.0.8.8.0.I.`.`.R.T.K.0.K.H.H.H.H.K.K.K.Y.R.+Xr.4 ",
"3 3.Y.`.[.[.[.[.{.[.[.[.'.T.H.9.9.H.R.[.'.R.I.L.}.$X@X}.[.[.{.{.[.}.}.}.{.R.J.0.9.8.6.8.9.0.0.0.I.`.}.`.[.[.[.[.[.[.`.L.Y.2.t < ",
"  y [.`.[.[.[.`.'.[.[.[.[.I.0.0.0.L.`..XoX}.I.0.[.$X$XoX.X.X.X}.}.[.}.}.}.T.0.8.0.H.0.0.0.0.0.0.I.[.}.`.[.[.[.`.[.[.`.`.=.3 > > ",
"< z  XK.H.H.H.H.H.H.H.0.H.I.`.`.`.`.`.}.@X@XT.9.U.oX$X5X7X7X$XoX}.}.}.}.}.T.8.0.Y.R.`.`.`.`.`.`.I.K.0.K.H.H.H.H.H.H.0.|.@., > < ",
"> c ;Xe.9.9.0.7.9.7.7.7.7.Y.`.}.}.}.}.oX5X7X[.L.I.`.+X5X8X8X5X.X{.{.}.{.{.T.K.L.{..X.X}.}..X[..XY.0.9.0.0.0.7.0.7.9.9.~.;.< < 3 ",
"< x >Xp.~.p.~.^.^.^.^.^.^.E.I.T.{.oX@X5X7X7X@XXX!.L.I.T.T.`.`.Y.L.L.L.K.L.R..X+X#X@X.X}.}.].R.I.E.~.^.^.^.^.^.^.^.~.p.*X<.3 4 4 ",
"8 c eX=X=X=X=X=X=X=X=X:X=XQ.9.K.'.oX7X8X8X9XqX7X}.H.8.9.8.6.8.8.9.9.0.9.9.[.5X0X8X5X+X}.}.{.L.0.E.=X-X=X=X=X=X=X=X=X=X:X<.6 6 3 ",
"8 c tXeXrXrXeXrXrXtXeX2X=XW.6.H.`.+X7XqXwXuXqX8X@X}.[.'.T.0.6.6.0.T.{.{.{.+X6X0X0X6X$X+XoX{.L.6.i.=X-X=X=X-X:XeXtXtXrXeX<.8 4 3 ",
"4 c pXdXfXfXfXfXfXfXpXeX=X^.Y.I.`.oX5XqXiXdXuX8X7X8X8X7XoXL.6.6.H..X8X8X8X8X8X8X8X8X7X5X+X[.Y.K.W.*X=X=X=X=X:XtXfXfXpXtXy.8 3 4 ",
"4 c aXfXfXfXfXfXfXpXrX,X=X/.W.W.T.R.+X6XiXfXdXwXqXqX8XqX@XL.6.6.0..X0XqX8X8X8X8X6X8X7X+X[.`.!.W./.=X:X=XB.M.l.V.<XV.<XV.~ 3 3 4 ",
"8 ~ pXaXaXfXfXfXdXeX=XeX=Xz i -.>.L.'.OXyXfXfXdXuXqX8X0X@XL.6.6.e.oX8X0X8X8X8X8X8X8X+X[.I.e.-.j ;.<.y.>XM.1.{ { | { X.u.8 4 8 i ",
"8 -.rX-X1X1X1X1X1X=X=X=X;.4 6 8 >.].T.].3XyXiXiXwX8X8X5X.XK.8.6.H.[.#X8X8X8X8X8X5X@X[.`.!.@.i s t 8 t &X&X] Q Q Q Q ] s.p 4 t s ",
"t -.V.s.| s.s.| s.V.B.-.t 4 < 4 c 5.>.0.}.OX6XqXqX8X5XoX[.0.9.6.0.R.oX5X8X9X8X5X@X'.I.T.5.s s i 6 < 4 -.V.| ! ! ! Q ) k.;.i i s ",
"w c C.| } } { ) _ M.u.i 8 4 < 4 8 i i $.T.`. X@X#X@XoX[.T.K.0.H.K.U.`..X@X@X@X+X'.T.L.!.>.s i 8 4 4 < w u.h.) {  .} } k.l.x i s ",
"8 d c.c.b.b.x.X. .d.` 6 < 4 8 i j l l $.H.H.I.U.Y.Y.I.K.L.R.`.`.`.L.H.L.T.T.T.U.K.L.T.{.2.s 6 3 4 8 8 6 ` z.X.x.b.N.c.j.a.e i s ",
"4 e z.N.F.F.N.N.X.X.^ 1   4 t t l 6.7.0.H.H.9.8.9.0.0.0.I.[..XoX}.T.K.0.0.9.8.9.0.I.{.[.K.q.a > 4 t 6 2 / z.c.N.D.F.S.z.^ 6 4 i ",
"3 0 z.A.G.F.F.S.c.o.^ 1 > < 3 < u 0.T.T.T.T.H.9.e.T.T.T.[.+X5X5X$X@X+X{.T.K.9.0.Y.[.+XoXY.L.$.> , < < 2 ) N.N.D.F.G.F.z.^ 6 < 4 ",
"> e m.Z.A.N.A.S.N.x.^ 4 > > 3 #.$.L.[.XX.X{.U.0.T.{.}.}.+X8X8X8X8X8X6X@X.XT.9.L.`.oX7X3X`.H.8.r > > , 2 ] D.N.S.N.S.N.o.h.d , > ",
"1 g l...g.X.X.X.c.C.:.8 8 8 u U.T.`.+X$X5X+XT.0.L.{..X@X5X8X8X8X8X8X8X8X$X{.L.K.`.OXwXwX XY.K.%.4 4 < < d s.X.X.o.X.j.C.1.7 > > ",
"8 t 8 e o.} _ ) k.1.s i i a h T.[.oX5X8X8X5X`.H.I.}.+X7X8X8X8X8X8X8X8X8X8X}.K.H.`.OXyXsX3X[.K.L.x 8 6 < , w ^ | ' ) h.~ 4 >   > ",
"3 4 7 6 d d ~ f s f s s s s l [.@X$X7X0X0X8X`.0.L.{.@X8X0X8X0X0X0X8X8X8X#X[.e.L..X7XwXwX XY.0.q.l 8 6 4 4 4 f g w g ~ i 8 < > < ",
"> , 4 6 4 < > 8 i s s s i h 3.+X7X8X8X8X8X$X[.0.I.{.+X8X0X8X8X8X8X8X8X#X.XT.0.T.@X0X0X5X_.9.6.e.j < < 7 8 4 4 8 i s i i t < < < ",
"  > < 8 8 < 4 8 6 8 8 6 -.#X}.[.@X5X5X#X+XoX!.r.P.R.[.oXoXoXoXoXoX+XoX[.Y.Y.P.!..XOX#X@X`.K.0.0.i   > 4 8 4 4 8 s s w t 8 4 < < ",
"> > , , 4 8 4 3 > > > > z 2.%.I.}.oXoX[.Y.L.~./.W.0.K.0.K.I.Y.T.L.H.K.0.9.E./.^.L.Y.[..X}._.Y.e.t   > > 4 6 8 i w s w 8 < < > > ",
"  <     < i 8 > > > > > 3 > 7 ].`.T.R.T.e.r.).:X).r.e.e.r.!.r.2.E.P.w.P.!.).>X*Xi.e.Y.`.`._.}. Xj > >   > i s w i i i 8 < > > > ",
"< > >   > , < <     > 4 7 3 8 5.3.8.H.K.W.).eXpX,X=X/./.5.z i 4 x ;X*X;XeXtXsXeX*XQ.P.9.9.R.3X5.8   > , < t i s i i i i i < < > ",
", < 4 4 < > > > , , 3 6 8 6 3 4 +.E.e.r./.-XrXyX4X=X=X/.p 4 6 4 4 =XeXeXfXfXaXpX>X).i.e.7.w.<.i 7 < > > < t i i i i i i i 4 4 > ",
"< 4 8 8 3 >     > 4 8 7 4 4 6 8 <.).p./.=X=X).(.!.r.).p.p 4 3 4 p eX:XrXfXfXfXpX,X=X/.;Xy.s 8 < 6 7 4 > < 8 s s i i i 8 4 4 8 4 ",
"4 8 s i 4 > > > > 8 8 4 > 4 s i x -.-.p.*X).r.9.&.6.|.p.s < < 8 i &X2X,XdXdXdXrX:X*X*XeXy.i 3 < 4 8 8 < < 8 i i s s i 8 < < t 8 ",
"i i s s 8 < < 4 8 4 4 4 8 t t s i i i 5.Q.r.0.&.&.6.W./.s 4 8 i s B.,X).|.|.|.(.W.E.i.|.>.8 3 4 8 4 > > < < 4 i i s i 8 8 4 4 4 ",
"s i s s 8 , < 8 8 4 , 4 i i i #.#.+.#.6.0.0.0.0.H.0.i.=Xy.8 w i y.pX=XW.0.9.0.8.9.9.9.K.3.O.O.#.;.8   > > > < 8 8 i s i i 4 4 > ",
"s i i s 8 , , 4 4 4 4 < 4 8 h K.L.Y.`.[.[.[.[.[.[.[.].%X;X@.7 h 3X3X/.). X}.[.[.`.[.[.`.R.Y.6.0.E.t 4 < > 4 4 4 8 i i i 6 < 4 4 ",
"t i i s 8     , < 8 8 < 4 +.$.L.[.oX$X8X8X7X5X8X8X7X@X.X[.e.$.3.T.T.}.4XpXuX0X5X7X7X8X5XoX[.Y.0.K.O.7 < < 8 8 < < 4 i 4 < 4 8 8 ",
"t i s i 8 >     > 3 4 3 h Y.I.R.{..X@X$X#X$X8X8X8X8X$X.XT.0.0.8.6.U..X3XiXuXqX8X7X#X#X@XoX}.R.L.K.3.7 > > 4 4 4 < 4 8 4 < 4 6 4 ",
"8 s s i 8 < > > > > 3 4 O.R.`.[.[..X}..X.XoX$X8X0X8X$X}.`.Y.0.H.L.U.}.5XqXqXqX5X+X}..X.X}.}.[.[.Y.0.h   > > < 8 8 4 < < 8 4 < < ",
"< 8 i i 6 4 3 , > , > < h R.`.`.`.`.`.`.`.[..X@X@X@XoX}.w.a k s #.`.`..X@X#X@XoX[.R._._.`.`.[.`.Y.K.j > >   < 6 t < > 4 8 < < < "
};
