/* XPM */
static char *result[] = {
/* columns rows colors chars-per-pixel */
"64 64 208 2 ",
"   c #3E3E3E",
".  c #6E3B19",
"X  c #713F1C",
"o  c #74411E",
"O  c #78431E",
"+  c #574538",
"@  c #6B462D",
"#  c #764421",
"$  c #794723",
"%  c #7B4926",
"&  c #734728",
"*  c #764A2B",
"=  c #7E4C29",
"-  c #674833",
";  c #654A38",
":  c #785033",
">  c #444444",
",  c #484848",
"<  c #4B4B4B",
"1  c #554C47",
"2  c #57504C",
"3  c #4C4D52",
"4  c #4E4E59",
"5  c #4F5059",
"6  c #545454",
"7  c #5A5855",
"8  c #53535D",
"9  c #5B5B5B",
"0  c #644F41",
"q  c #645348",
"w  c #715543",
"e  c #685E58",
"r  c #6A625C",
"t  c #796458",
"y  c #575761",
"u  c #5C5C62",
"i  c #5D5D6B",
"p  c #5F5F74",
"a  c #646464",
"s  c #63636B",
"d  c #696969",
"f  c #6B686B",
"g  c #7B6D62",
"h  c #636373",
"j  c #6A6A7B",
"k  c #824D27",
"l  c #814E2C",
"z  c #83512D",
"x  c #845432",
"c  c #885734",
"v  c #8B5936",
"b  c #855838",
"n  c #8D5C3A",
"m  c #915E3B",
"M  c #93613E",
"N  c #99653E",
"B  c #8E6142",
"V  c #966441",
"C  c #996644",
"Z  c #986847",
"A  c #9D6C4A",
"S  c #9B6D52",
"D  c #98715B",
"F  c #A16E49",
"G  c #A4714D",
"H  c #A87653",
"J  c #AE7D5A",
"K  c #B17E5A",
"L  c #957566",
"P  c #977A78",
"I  c #9C7E7E",
"U  c #B4815E",
"Y  c #B8845F",
"T  c #9C8379",
"R  c #AE846A",
"E  c #B58461",
"W  c #BA8661",
"Q  c #BD8A65",
"!  c #B78868",
"~  c #BE8C69",
"^  c #A5867F",
"/  c #B48A70",
"(  c #BC9172",
")  c #BC957B",
"_  c #BD987D",
"`  c #C18D6A",
"'  c #C5916D",
"]  c #C8936D",
"[  c #C59573",
"{  c #CC9A75",
"}  c #CE9C79",
"|  c #D3A17E",
" . c #6D6D85",
".. c #6E6E89",
"X. c #6F7081",
"o. c #71718D",
"O. c #797888",
"+. c #757592",
"@. c #7B7B94",
"#. c #79799B",
"$. c #8F7B8A",
"%. c #937D8A",
"&. c #9C848C",
"*. c #988697",
"=. c #A78983",
"-. c #B99A88",
";. c #A18E9D",
":. c #AC9494",
">. c #8585A9",
",. c #8483AD",
"<. c #9C93AA",
"1. c #8484B4",
"2. c #8C8BB4",
"3. c #8686B9",
"4. c #8788B9",
"5. c #8A8ABB",
"6. c #948EB5",
"7. c #8F91BF",
"8. c #9B95B5",
"9. c #9292BC",
"0. c #9C9CBE",
"q. c #A49CBD",
"w. c #BFB2AC",
"e. c #A5A4BA",
"r. c #B1AFBE",
"t. c #BDB5B6",
"y. c #C09E88",
"u. c #C1A18A",
"i. c #D7A682",
"p. c #D9A783",
"a. c #DBA986",
"s. c #DEAD8A",
"d. c #CDAD94",
"f. c #C5AC99",
"g. c #E1AF8C",
"h. c #E2B18D",
"j. c #E6B491",
"k. c #E9B794",
"l. c #EBB996",
"z. c #EDBB98",
"x. c #F1BF9C",
"c. c #C3B0A1",
"v. c #C8B7A9",
"b. c #C7BBB3",
"n. c #CABDB4",
"m. c #F3C19E",
"M. c #F7C5A2",
"N. c #FBC9A6",
"B. c #FECCAA",
"V. c #FFD1AE",
"C. c #FFD3B1",
"Z. c #8D8DC1",
"A. c #8F90C1",
"S. c #9292C3",
"D. c #9C9DC3",
"F. c #9696CA",
"G. c #9799CC",
"H. c #9B9BCD",
"J. c #9E9ED2",
"K. c #A09FCF",
"L. c #9EA0C1",
"P. c #A2A3C2",
"I. c #ADAEC2",
"U. c #A6A1CA",
"Y. c #A8A3CB",
"T. c #B1B2C4",
"R. c #BDBDC6",
"E. c #B2B3CC",
"W. c #A2A2D5",
"Q. c #A9A8D7",
"!. c #A5A5DA",
"~. c #ABABDD",
"^. c #B1B1DF",
"/. c #A5A8E0",
"(. c #ADADE1",
"). c #AFB0E3",
"_. c #B1B1E3",
"`. c #BABBE5",
"'. c #B6B6EA",
"]. c #BBBBED",
"[. c #BEBEF1",
"{. c #C0BFF4",
"}. c #BFC1CA",
"|. c #BFC0F2",
" X c #C2C3CB",
".X c #C8C7CA",
"XX c #CCCCCD",
"oX c #D1CDCC",
"OX c #D3D3CF",
"+X c #CECFD1",
"@X c #CFD1D0",
"#X c #D2D2D1",
"$X c #D9D9D7",
"%X c #DADAD9",
"&X c #E5E1DD",
"*X c #CECEE6",
"=X c #D0D0E6",
"-X c #C2C2F3",
";X c #CBCCF5",
":X c #C6C6F9",
">X c #CCCCFD",
",X c #CFD0FF",
"<X c #D2D2FF",
"1X c #E7E7E6",
"2X c #E8E8E6",
"3X c #F3EBE5",
"4X c #F3F3F3",
"5X c #FEFEFE",
/* pixels */
"< < 6 9 9 6 6 6 9 9 a 9 9 6 9 > , >   > 5 6 1 * x z * * : n x : c x n B B x : b x * q r 6 3 6 6 6 6 6 6 9 d a a 9 6 6 a a a 9 6 ",
", , 3 9 7 < < 9 a a a 6 > > > < < > > , 2 7 ; = M v % $ v M z $ = V N C Z M N C m z * 2 2 < 9 9 6 < < 9 a a u 9 7 6 < 6 9 6 6 < ",
"< < 6 6 6 6 6 6 9 9 9 >   > 6 6 , > , , + = z c c c z x c v c z n Z Z C C C C Z M x O @ 1 6 6 6 3 6 9 a d d a a a 9 6 6 6 6 < < ",
"6 a 9 , < a u 3 > < >   > 6 a 6 > + > > + z M c % = M M = $ c M Z V M C C C Z C M z O O 0 9 6 > < 9 d d a d d d d a 9 9 , 9 9 6 ",
"< 9 6 + > 8 6 < > >   > < 6 9 9 6 , , > + = v c z z v v % o = m M M M v M M C M v c = $ ; 7 6 3 6 9 u 7 7 9 9 9 9 9 6 6 > 6 9 6 ",
"> , > > > > > >     , 6 u 7 < 7 9 6 1 + + # % z m v = $ # o o * v C n = = M M z % v M z % ; 6 9 7 < , > < > < > > , < >     , 6 ",
", , ,   , < >   > , < 9 9 6 6 6 9 6 - $ & $ o = v v z % = = o # z n x $ $ c v k $ z m x k & 2 7 6 >   > > < < > > > , , >   > < ",
"6 9 6 > < 8 9 < , 9 9 6 < 6 9 6 3 , @ z M z % # % z v m M m = o # % % # # % = % o % = x c : , < < < > > > 9 9 < , 6 9 6 >   > , ",
"9 9 6 < 7 9 9 < > 6 9 6 < 6 9 9 3 > - z M x $ o $ l n V V m l X o o o # # # o # o o o c F B , > > > , , < 9 9 < < 9 a 9 < , , 6 ",
"6 3 6 9 a a 9 < > < 6 6 9 6 6 6 7 6 - $ z $ o % x c z l l l $ # o # # # # # o o o . o Z ' Q 2 > > > < 9 9 < 6 6 9 a a a 9 9 9 6 ",
"6 < 6 9 d a 9 6 , > , 6 9 9 < 6 9 9 @ o o $ % z m n k o # # # # # # # # # # $ % = & = U | g.r , > , 6 9 a < < 9 d d a d d d a 9 ",
"6 7 a a d d a 9 6 , > , 6 6 6 9 a a - o o z C V c % # X # X X X o o o o o . $ V U U E i.m.l.g , < 6 9 6 6 6 9 a d d a d d d d 9 ",
"6 9 d a a a a d 9 3 > > < 9 a a s 9 - o $ m J F x X # # # # # # # # # # # o c U p.a.a.l.N.l.r , 6 9 9 6 < 9 a a d d a d a d d 9 ",
"6 6 9 a a a d d a 6 , , 6 9 a a d e @ = l n V V c x c l $ $ n G G G M # = A ~ a.h.{ J U ~ } r , < 6 6 6 < 9 9 9 a d a a a d a 9 ",
"6 , 6 a d a a d a 6 < 6 9 a a a d 9 + x V x k k m V Z m % $ H i.a.i.J & v } N.V.l.K = o $ G [ r > > < 9 9 < < 9 a d a 9 d a a 9 ",
"6 6 6 6 9 a d d a < > 6 d d a d f 9 < 0 F C c c v m m v $ $ K h.l.l.{ G U l.C.C.m.[ A V Z H { T , < 6 6 6 < 9 a d a a a a a 9 , ",
"9 9 6 3 6 9 a d 9 < < 9 d d a a 9 9 < , q A U Z z # $ $ X # H a.z.M.m.l.m.N.B.B.N.m.l.l.l.{ U t < 9 6 6 < 9 a a d d a d a 9 3 > ",
"9 7 7 6 6 7 a d a < < < 9 a d a 9 6 , > > 2 A U m z # # = m ~ h.m.N.V.V.B.B.B.B.N.N.B.V.B.| G r 6 9 9 3 < 9 9 9 a a a a 9 6 , > ",
"  < 9 9 9 6 6 9 a < > > < 9 d 9 6 , > > > > ; A Q U x = H [ h.M.N.N.B.B.B.B.B.B.N.m.k.l.k.' A t < 6 6 7 9 3 6 a d d 9 7 3 > > , ",
"  > 3 9 6 , , 6 9 6 <   > < 9 6 < > , < > > + n ` W c z ~ l.M.B.B.B.N.N.V.B.N.N.m.h.{ { [ ( D 1 > > > 6 9 , < 7 a a 9 7 ,   > < ",
"< , < 6 ,   > , < 9 6 < > > < > > < 9 9 < > < n N n # c { N.N.B.B.B.B.B.B.B.N.x.g.' H F A L 7 , < > > < < > > > , , < < >   > 6 ",
"6 < , < , > , , < 9 9 6 < < < , > > 9 7 3 < 7 B l # X n } N.N.N.N.N.N.N.N.N.m.h.{ R S n w 9 3 > > > > > > > > < > > > > , > , < ",
"< > , 9 6 > , 6 6 6 6 6 6 9 9 9 6 < 3 5 3 9 d T Z l z M ~ a.j.l.z.z.l.l.l.z.h.] R ^ *.&.s 6 <   > > < > > 6 9 9 9 , > < 6 < , , ",
", > 6 9 9 , , 9 u 6 < 6 a d d a a 9 j  .X.O.2.<.L V C S J ! { p.| i.i.i.p.a.} J D ;.Y.H.#.< < > > > > < < 9 a a a 3 , 6 a 7 , < ",
"< 6 9 < 6 9 6 < < < 6 a a d a a a u 1.Z.5.H.~.q.&.P &.&.H H K W W Y E W W W E L &.8.!.!.!.X.<     > < 6 6 a a a a a 9 6 < 6 6 < ",
"3 a 9 < < a a < < 6 a d d d 9 d o.+.1.5.5.F.W.H.2.5.K.q.P C Z A A F A A A A D %.2.G.!.Q.~.H.j >   , < 9 a d d d a a a 6 , 6 9 9 ",
"6 9 9 6 6 9 6 < 6 9 a d a a a u 1.W.W.W.W.W.H.H.F.J.!.Q.;.I I I =.I I P %.T &.6.G.G.G.G.G.J.J.j < , 6 a d d d a a 9 6 6 6 6 6 6 ",
"6 < 6 9 9 < < 6 a d d a u u s p 4.'.|.:X-X~.S.S.J.Q.~.Q.Y.U.U.U.U.U.U.U.Y.Y.Y.Q.W.G.7.5.5.S.).K.X.< < 9 d d a a a 6 < 6 9 9 < < ",
"< > , 6 9 3 < 6 9 a d a a u A.G.G.`.,X<X,X).A.5.H.W.Q.(.(.(.(.(.(.(./.).~.!.W.W.W.H.H.K.G.H.J.G.D.s < 6 a a 9 9 6 6 6 6 9 6 , > ",
"> , > , 6 9 9 6 6 9 a d a u 7.J.W.|.,X<X,X).A.4.5.F.W.~.~.~.(.(.(.(.(./.Q.S.Z.5.S./.|.|.|.~.A.4.G.@.< , < a a 6 < 6 a 6 < , > , ",
"> > > > < 9 6 < > < 9 a 9 u 7./._.|.,X:X|.Q.A.3.3.Z.H.J.W.W.W.W.!.!.J./.G.Z.$.Z.7.).;X,X,X|.S.4.A.h > > < 6 6 < < 6 9 9 > > > , ",
"> , , > , < < > > , < 6 3 5 7.|.:X,X:X).F.Z.4.3.3.3.4.Z.Z.Z.Z.Z.Z.Z.Z.Z.Z.3.3.3.7.).>X,X|.|.!.J.4.8   > < 3 < > > < < > > > > < ",
"  < < > > >     >   > > > 3 5.[.>X,X>XQ.5.4.5.5.5.5.5.5.2.5.5.2.3.3.5.2.5.5.5.4.A.(.>X,X>X{._.!.2.4 , > > , >     > ,   + > 3 3 ",
"< < < , >   > > > > >   > 5 5.).].:X>X`.T.0.5.9.I.T.I.I.I.I.I.I.I.I.I.I.T.T.I.9.A.(.>X,X>X].~.~.>.6 < ,     >     6 9 <   < 6 6 ",
"9 9 6 3 >   > , , > > , 3 5 5.!.~.{.>X*XXXT.9.0.}.@X+X@XXX@XXXXX+X+X@XXXoXoX X0.A.(.>X,X>X{.~.W.,.9 9 < , > > , 3 9 9 9 , 6 6 6 ",
"9 6 6 9 6 6 6 9 3 > > < 3 y 5.!.~.[.>X=XXXT.9.0. X#X&X2X1X1X1X1X1X1X2X2X&X#X X0.Z.~.>X,X>X{.^.H.2.9 9 6 3 < , < 6 6 6 6 3 6 6 6 ",
"6 < 6 9 a a a d 9 < , 6 6 y 5.!.~.{.>X=XXXI.5.0.}.$X4X5X5X5X5X5X5X4X5X5X4X$X}.0.S.(.>X>X>X].).K.#.< 6 7 7 3 < 6 9 6 , 6 9 6 6 6 ",
"3 6 9 a d a a 9 7 6 6 6 6 8 4.!.~.{.>X*XXXI.9.0.R.$X4X5X5X5X5X5X5X5X5X5X4X$XR.0.Z.(.>X>X>X|.).W.o.< 6 6 6 < , 3 9 6 6 9 9 6 6 6 ",
"7 9 d a d d a 3 , 7 u 6 < 8 5.!.~.{.>X*X.XI.5.0.R.$X4X5X5X5X5X5X5X5X5X5X4X$XR.0.S.(.>X,X>X|.).W.+.9 9 6 , > >   > 9 9 6 , 3 9 a ",
"9 a d d d d 9 6 6 7 9 6 3 8 5.!.~.{.>X*XXXr.9.0.R.$X4X5X5X5X5X5X5X5X5X5X4X$XR.0.A.~.>X,X>X|.).K.o.7 7 6 < > , < 6 6 6 9 6 9 9 d ",
"a a d d d a a r 9 3 3 6 9 8 5.!.~.-X>X*XXXI.5.0.R.%X4X5X5X5X5X5X5X5X5X5X4X$XR.0.S.(.>X>X>X[.).W.o.< < 9 9 < < 6 6 < < 6 9 a a a ",
"a a a d a u u a 9 , > 6 9 8 5.!.~.-X>X*XXXr.9.0.}.%X4X5X5X5X5X5X5X5X5X5X4X%XR.0.7.(.>X>X>X[._.W.o.< 6 6 9 < < 6 9 6 < < 9 a a d ",
"9 9 d d a 6 3 < , , > , < 8 5./.~.[.>X*XXXI.7.0.}.%X4X5X5X5X5X5X5X5X5X5X4X%X}.0.Z.(.>X>X>X-X_.!.o.9 9 6 < > > , 6 9 9 6 < 9 a a ",
"6 6 9 a 6 , > > , < ,   > 5 5.J.~.[.>X*XXXr.8.<.t.oX&X3X3X3X3X3X3X3X3X3X&XoXt.9.A.(.>X>X:X'.(._.j 9 9 <   >   > , 6 9 6 > , 9 a ",
"< < < 6 < > < 6 7 < >   > 4 1.F.F.'.>X*XXXw.:.^ -.y.d.d.d.d.d.d.d.d.d.d.d.u.-.<.A.(.:X-X'.~.S.>.u < < > > > < > > < < < > , 3 6 ",
"> , ,     > 6 7 9 3 , , , 5 D.F.5._.>X*XXXf.( W ~ ~ Q Q ~ ~ ~ ~ ~ ~ ~ ` ~ W / *.S.).:X[.(.S.i , , , , , > < , > > > > > > > > > ",
"3 6 6 > < 6 9 9 7 6 7 9 y f e.>.5._.>X=XXXc.( ] p.h.h.h.h.h.h.h.h.h.h.h.| ] R *.S._.>X_.!.X., > < 6 3 , > 6 6 > > > < < > > > > ",
"9 9 6 6 6 a 9 6 3 7 a a s d d 6 1.[.;X=X.Xc.( } z.N.N.N.N.N.N.N.N.N.N.N.l.{ R *.Z.).-X).K.i , < 6 9 9 < < 6 9 6 > 7 a 6 < > > > ",
"6 6 9 6 6 9 6 6 9 a d a d d d 9 1._.>X*XXXc.( ' i.k.N.N.k.s.M.B.m.s.l.B.m.{ / *.5.G.).E.@.< , 6 6 9 9 6 6 6 9 6 6 a a a 6 < > < ",
"> > 6 9 6 < < 9 d d d d a a d s 2._.>X=XXXc.( Y Q } m.M.} ~ h.B.h.Q | M.m.{ R *.4.Z.1.s , , 6 7 6 < < 9 a < < 9 a a a a a < < < ",
"> > < 9 6 3 6 9 9 9 9 9 9 6 9 9 1._.>X*XXXc.( U U ` a.s.' E } j.} Y ' s.a.( / :.D.A.h > > , 6 6 <   > 6 9 6 6 9 d d 9 a 9 6 < < ",
"> > > < 6 9 7 < > > > , < , , y 1._.>X*X.Xf.( U Y W ` ` Q W ~ ` ~ Y Q ~ ' Y ( w.}.L.u > > > , < < > > > 6 9 9 a a d a 9 < < > > ",
"  >     < a 9 > > > > < < ,   5 1.^.;X*XoXv.-.) _ _ ) ) ) ) ) ) _ _ _ _ _ _ -.w.}.L.j > > > > < > > >   > a d a a a a 9 < > > > ",
"< , > > > > < <     > 6 6 6 > 5 2.E.#X#XoX.Xn.b.b.b.b.b.b.b.n.n.n.n.n.b.b.b.t.e.G.#.5 >   > 6 9 6 > > > < 9 a d a a a a a < < > ",
", < 6 3 < > > > , > 3 9 a 6 , y >.T. X X X.X+X+XXX+X+X+X+X+XXX}.}.}..XXX@X@X}.L.1.i > > , 3 9 9 9 < > > < 9 a a a a a a 9 6 6 > ",
"< 7 9 9 6 >     > 6 9 6 6 6 9 s >.9.0.0.L.I.XX#X#X#X#XOX#XXXE.L.D.D.T..XOX$X}.P.@.5 > > 9 9 6 6 6 9 6 < < a d d d a a 9 6 6 a 6 ",
"9 9 d d 6 > > > , 9 9 6 , 3 a d ,.4.3.Z.Z.G.}..X.X.X.X.X.X XD.3.3.3.0.}.XXXXR.L.@.6 < , 9 a 6 < 6 9 9 < , 9 a a d d a 9 < < a 9 ",
"a a d d 9 < < 6 6 6 6 6 7 a d O.1.1.3.$.3.Z.0.L.P.P.P.P.P.P.9.1.1.1.5.L.L.e.0.F.+.< , > , 6 6 6 9 3 , > , , 9 a a d a 9 7 6 6 < ",
"a a a d 9 , < 9 a < < 6 a i >.4.4.4.4.5.Z.3.3.3.4.4.3.5.5.5.3.5.3.5.5.5.5.5.4.A.>.y > > > < 9 9 9 , > > , , < 9 9 d d a a 6 6 > ",
"d a a d 9 > < 6 6 6 6 < 3 y 7.G.F.W.Q.~.!.!.!.J.F.A.3.3.1.3.F.~./.!.!.!.!.!.J.A.S.@.<   , < 9 9 6 < 6 < , < 6 6 9 a a a 9 < 6 6 ",
"a a d d 9 >   > < 9 9 < , y 7.W.~.].:X-X:X:X:X].(.K.A.4.1.5.~.:X>X-X>X-X:X:X].H.7.1...p 9 9 3 , 6 9 6 < , 9 9 < , 6 a 6 < 3 9 9 ",
"9 a d a 9 >     > 6 6 6 3 5 5.!.~.].-X-X{.{.{.].(.W.A.4.3.5.~.-X-X-X[.-X|.:X].W.A.D.A.7.s 9 6 6 6 9 < , > 6 6 6 6 6 9 6 3 7 7 6 ",
"9 d d a 9 < > > > > 3 9 9 8 5./.~.~.(.(.^.^.(.(.~.W.A.3.4.5.H.(._._.(.).).).~.!.!.!./.G.#.u 6 9 6 < , > > > < 9 9 6 < < 7 6 < < ",
"< 9 a a 9 6 < , , > , 3 3 y 7.J.W.W.W.W.W.W.J.W.W.H.A.5.5.5.F.W.W.W.W.J.W.W.W.W.W.W.J.G.A.j 6 9 6 , , , > > , 9 9 < > 6 9 6 , < "
};
