/* XPM */
static char *result[] = {
/* columns rows colors chars-per-pixel */
"64 64 91 1 ",
"  c #7C7C7C",
". c gray49",
"X c #7E7E7E",
"o c gray50",
"O c #808080",
"+ c #818181",
"@ c gray51",
"# c #838383",
"$ c #848484",
"% c gray52",
"& c #868686",
"* c gray53",
"= c #888888",
"- c #898989",
"; c gray54",
": c #8B8B8B",
"> c gray55",
", c #8D8D8D",
"< c #8E8E8E",
"1 c gray56",
"2 c #909090",
"3 c gray57",
"4 c #929292",
"5 c #939393",
"6 c gray58",
"7 c #959595",
"8 c gray59",
"9 c #979797",
"0 c #989898",
"q c gray60",
"w c #9A9A9A",
"e c #9B9B9B",
"r c gray61",
"t c #9D9D9D",
"y c gray62",
"u c #9F9F9F",
"i c #A0A0A0",
"p c gray63",
"a c #A2A2A2",
"s c gray64",
"d c #A4A4A4",
"f c #A5A5A5",
"g c gray65",
"h c #A7A7A7",
"j c gray66",
"k c #A9A9A9",
"l c #AAAAAA",
"z c gray67",
"x c #ACACAC",
"c c gray68",
"v c #AEAEAE",
"b c #AFAFAF",
"n c gray69",
"m c #B1B1B1",
"M c #B2B2B2",
"N c gray70",
"B c #B4B4B4",
"V c gray71",
"C c #B6B6B6",
"Z c #B7B7B7",
"A c gray72",
"S c #B9B9B9",
"D c gray73",
"F c #BBBBBB",
"G c #BCBCBC",
"H c gray74",
"J c gray",
"K c gray75",
"L c #C0C0C0",
"P c #C1C1C1",
"I c gray76",
"U c #C3C3C3",
"Y c gray77",
"T c #C5C5C5",
"R c #C6C6C6",
"E c gray78",
"W c #C8C8C8",
"Q c gray79",
"! c #CACACA",
"~ c #CBCBCB",
"^ c gray80",
"/ c #CDCDCD",
"( c #CECECE",
") c gray81",
"_ c #D0D0D0",
"` c gray82",
"' c #D2D2D2",
"] c LightGray",
"[ c gray83",
"{ c #D7D7D7",
"} c gray85",
/* pixels */
"*&*--**=*&@&rh5;;wg7o,fi:6fe-:*-3ikd3#&6jzjzgbkt3-&&&O$$%-dxkdN(",
"-,-#&,;$$-%%rk923td9*4fa5eh4.-&;5ahu:#>qxvlcklfw2=$$*6,&&,jxbcSQ",
"mh5:wd1O2dy*1hjadlxfufcxjCPh6nGmu529rw=9klhxjcxlgggjht3#O=shkjxM",
"jp85wy5,8ut20mZzbbczcbvcnKRf3A(Kd1;8lz3rlkdkhhhklxxvxft1*:jBBxzc",
"=3id61dMp<6hL(!/)(!~))^^(]_l7C~^~QRW~/!!~Hnbzkzzlkhdfvxp77Z/Gxjl",
"-,0y4-qze-3pvAVJHJHGHHJHHKDu1gDHKLLJFJUJGcsjkzcbbnvczkfq38F`YZMB",
"1-%&%@$;=@--*,,-*=>;%*>:;,<$X:1,;=-;;-:-,=>ykjjlzzllllw*&6H/)/^Q",
";>-##*&%&%:-**%%#$=&+#=-**=*&:#@$%&*&$+o&#;ilzxcccxzzv9#*rP'_`'(",
"%-;;3q98eq3-$=500000000qwqqqq990wq98qwqes7:9qtteweruue3=*3aMbbbc",
",-=5azczvkw<&-rzxxxxxxlhlxcxljkkkjhhgjnHRg&==>=%*&#%;:>:-*&*====",
"2-,rjkxzzvvbt,ycccccccxlkzvVHYPLJJKKJGJQ/j*19=$<yu3;1r2>8ipqwwqr",
"=>ecnlxMmvSWb<8hjjjjjjkljkvFQ[)(/()__)^!Th3ul,;9hlr50j82ybMlxzzc",
"$1abvjlxhdA^b&*6666666655460tietuuytiair0,*26tw76670w49ijxzglklz",
"=1qplvzxbmKRx11:::::::;;-=&%#@$;,;#O$--::>,:;lcp2<edy-tcmczxccxx",
"<<1eB!!RRJmp<-4sddddddfdt6<---17q5*@*3tdsghphgbcutzzadhlkkzbxzxl",
"1,O;nYYTEIc2+;ezxxxxxxlxc8--=:1flw2;=5sadgjkkgffffffffffffffihlp",
";>$2MUYYUJz5%>0zxxxxxxjglu82;,8fdte4:8zkhhjkkjjjjjjjjjjjjjjjgkjs",
"&*o@272<12;#+:8zxxxxxxkgkfp7>8szmGIz2-;;;=**=--------------->;=*",
"862<21,,22114qyzxxxxxxxzlkh7,ycnV~}D5$#=<21,,11111111111111143>*",
"xhhjghjkkjgddffxxxxxxxxxzvx8:thjzP`A4&<whxzkjlllllllllllllllczt>",
"NzvMxlxkjjjjkzxxxxxxxxljxvl8:rpkNU(C3#>ejxzkklllllllllllllllxle*",
"swfMvccxccczzcnxxxxxxxzllaw<3hAPSMNf1;0azxjjlkkkkjkkkkkkkkkkgkls",
":=9fhjkkzzljjkzzvzlzllxzf9>=7v~^Z9>;>6gkbckhxjlllczkzllllllljnAG",
"=>369qqweeeeeee0pr9t07ew83=$2pzlf6$+*3eucvzhbCKHGYLDPJJJJJJJLPCg",
">;*-;-&*>::::::=2>*<:$&:<;$%:21;-:-&-:&7fjgfvT^EUQQE^QQQQQQQ~Rv1",
":*%>9ttrrrrrrrr0w2&;,-%>q2-6w:,wr<*3q7-146520isaafspauuuuuuuyp0%",
"71>6ilxxxxxxxxxkfw1=-;>8uq7us7,pg2*9du4:@:6,-*&*=;:>>>>>>>>>-><:",
"jatuflllxxxxxxxBmVnw>10e5qu08u878wrwwpmp3gAze2-&&&2etaaaaaaaspaf",
"mcllzvvclllllllbvPTi%<uu5yd94sxe9kbp9gUc6kLCk3&->:qhjzzzzzzxgfhz",
"vxzljjklkkkkkkkckI~t 4ljjjfsdhvdikxgfMQb:eSKT3%5iilmljjjjjjjjzzk",
"AZVMMVCVCCZZZCCAFDv8:4rgZDMvnnBAZMnCVVBe2hDPC5:6eeakgczxMVVMBBVC",
"')^~^//!WQ!~^//EJz7*#$,hL/^^(/R^/QW!WZ7>,lFGx5=;,,rzzhlNJE^~QQQQ",
"SBmMBNmCHFSAZCCZx8%&<-&eMGSSDZNADSSSBf-&,jCSl5&$$@3apwyfvVAZZAAC",
"72<33<<231<1<<,21=+;4;o*42-->:>>,<22>->%=sBPK6&==@=,;:>,1222>22>",
"*#%;=#&&+$&****o&;*&=%$=$$&%%;*+O@*=*=>#$uNR!8*;:$*;&;-&%%*:#=;%",
"-=171-3ertr04;%-2qe98iku,4y9<571>5qeerq<;yzBn4&*-&2eqq95,-*=<qyq",
"<2ed03uljllfw1&<3yzljAWC36fw<qt77alljkl0<tgza1%=>,ekkhjdw1*#5dxh",
"*-5r74qeefzlgt6::wvcgMWF<;qwqaq9ykbvzzl7-elAB6=,9qdczzvbbd4=7zvc",
",*,7ra7*4szzlp6;>iMvzSRZ8=;eg93uxxzcxhh6:ynPIq-3fzcchzlvWTq%3mdl",
",=8u75tupkvza8,-1vWEI!_F88ue0epkvxxvvxzq1uxBv3=8lcxlfxjxTTe$3vsk",
"2;es1-uzffkg9:=-1vWRITIk:8d91tdgdppdfda4>thxu3>6iuhmmMMBKZ0;6cjM",
":#29&O205387=@%##3yw9w0,+=3-&463,<221<4--uxNk<$=>1gPWW~IBt-,8xVW",
">%,7<:-&=>55><7aw1=&%;,6w1=>256229w6:-3;-0udt,&--:sGLGHne&X=5axH",
"4,0ggp4&1ugaakNIZe=-;1tMLg3wffgdlAFx93y7:<-:%-*;&O>73552;%%;*-;6",
"-*qxvf5%5lbhlCJ(Ra:340hFQj1wkvxzCW!N61gy662866594:70,:,48081568i",
":;ezxf3$8lvzjbP~)i+tkslS!n1rkllxBW(b57hhhhgkczjfgjjs0-0psfhdgax]",
";;ezxf3$4sghflGR(d-hmfjBTv<tlzlxMR)m56fkczkjlclkxncge-uxzlzlxkm[",
"==wxcf3$8kNGJHQKTy&abjlBTv,ejklznY)N4:8azxhghlklxxge1=gDFZAAGKL[",
"--wxcf3+1hG)]/_/!i%ekjvSQn,ehhjlvI)V3%:tcmbcbnbbbzy2%>M/')(`/_^'",
"3<yxxf3$6hA~`Q~/!f<ulkcSQm1tlzhznI(C3$:wjvczxcvvcjt2*,M^`/~!^]^^",
"yqdvzd3&40egksjti3,axlzBRb2ucbdxBU(Z4#&,57654568873:%#whgdayszds",
"zskbzd4+%;:1>$&%;&:ixzzCEc:wffavAT(Z6*;*&=:>,&&%&&**=->=$=>:*>&:",
"Nzcnxs4*5ugxp22yy53pzjzGWc=2q7rNP!_Z7<y4<6euy:;-*=;:5u6-+:qepdsl",
"bzhghu2&2gATk:qxk71acklCYM>&5&:S!ITm57g85ylld<6,#-;>rle8X-glvgmm",
"5,;23>=*3fDQx>9ch3;ylgfNWV<1t<=r0<81*<2rhzzxcPRc1:6tjcNC6<szbjbc",
"-&>2=+>58hG^v>8vh1>dNmmZDf,0h9%:*-6>*110ajvBAUYv3>wjcxL!i:0pfafp",
"23rp3=qfalF~c;8xg57V~(~Ct>>ulw%;3sct<9d97iNGPtq5-:wjxxL~y%>3-;:&",
"<,9ir0svxzSQz=8zg64zHLHd=$3pf9**,tfq<7u617axM,$%&=9hcbJRt&-%=774",
"=#&5ufkccjA~x=9cj4#,4<3<%*<tf7-$#=:---=-=&=>5<*==&8kxbJEi-;#2jkk",
">&@;yvmcjfA)n:9zl5+&*#@@:#X0z0-&**&&$@$%$@+#&#@=*$wldgG!p*&O;jxv",
",&6p95dmcaB~c;tvlp090wtyw09sk0>9ue0ryetyyreyisls->9knD!Wy*8wikzx",
":=txr8jbhlH`n>9NMbxkgghffklcz94uzzlkhddggdsghT~Z>:4jZ)`Rp<pcxkll",
"4:7u0ejznHY!v>38wpkzxklcvMxzg6-<rlBAHLKPPKJPY(_D1,9bL!Ad<;tlcznS",
";.@1qdjaB([_b% -3tjbmnvzzlsdhe=$;umH/{`]]`_]{_`J4,2pN!d-%6hMvcH)"
};
